<svg xmlns="http://www.w3.org/2000/svg" xmlns:xlink="http://www.w3.org/1999/xlink" width="217" zoomAndPan="magnify" viewBox="0 0 162.75 34.499999" height="46" preserveAspectRatio="xMidYMid meet" version="1.0"><defs><g/><clipPath id="e1f12d9d92"><path d="M 9 0.851562 L 31 0.851562 L 31 29 L 9 29 Z M 9 0.851562 " clip-rule="nonzero"/></clipPath><clipPath id="be00bc0f17"><path d="M 4.441406 3 L 18 3 L 18 25 L 4.441406 25 Z M 4.441406 3 " clip-rule="nonzero"/></clipPath><clipPath id="f42e4f0bdd"><path d="M 161 19 L 161.464844 19 L 161.464844 20 L 161 20 Z M 161 19 " clip-rule="nonzero"/></clipPath></defs><g clip-path="url(#e1f12d9d92)"><path fill="#004aad" d="M 12.703125 25.464844 C 13.230469 25.585938 13.761719 25.648438 14.304688 25.652344 C 14.546875 25.652344 14.785156 25.640625 15.027344 25.621094 C 14.199219 25.066406 13.492188 24.382812 12.902344 23.582031 L 12.730469 21.632812 L 12.503906 21.632812 C 12.324219 21.632812 12.167969 21.570312 12.042969 21.445312 C 11.914062 21.316406 11.851562 21.164062 11.851562 20.984375 L 11.851562 17.632812 C 11.851562 17.464844 11.882812 17.304688 11.949219 17.148438 C 12.011719 16.996094 12.101562 16.859375 12.222656 16.738281 C 12.339844 16.621094 12.476562 16.53125 12.628906 16.464844 C 12.785156 16.402344 12.945312 16.371094 13.113281 16.371094 L 13.691406 16.371094 C 13.8125 16.371094 13.894531 16.3125 13.929688 16.195312 C 13.964844 16.078125 13.933594 15.984375 13.832031 15.917969 C 13.351562 15.609375 13.109375 15.175781 13.113281 14.605469 L 13.113281 14.34375 C 13.113281 14.121094 13.15625 13.914062 13.246094 13.710938 C 13.332031 13.511719 13.460938 13.335938 13.621094 13.191406 C 13.785156 13.042969 13.96875 12.933594 14.179688 12.867188 C 14.386719 12.796875 14.601562 12.773438 14.820312 12.792969 C 15.628906 12.871094 16.21875 13.59375 16.21875 14.410156 L 16.21875 14.609375 C 16.21875 15.175781 15.980469 15.613281 15.5 15.917969 C 15.398438 15.988281 15.367188 16.082031 15.402344 16.199219 C 15.441406 16.316406 15.519531 16.375 15.640625 16.375 L 16.21875 16.375 C 16.648438 16.375 16.988281 16.550781 17.238281 16.898438 C 16.773438 17.042969 16.394531 17.3125 16.105469 17.703125 C 15.816406 18.09375 15.671875 18.535156 15.671875 19.023438 L 15.671875 23.636719 C 15.671875 23.851562 15.730469 24.050781 15.851562 24.230469 C 15.972656 24.410156 16.132812 24.542969 16.332031 24.628906 L 16.257812 25.449219 C 16.71875 25.347656 17.164062 25.214844 17.605469 25.046875 L 17.414062 24.078125 L 16.746094 24.078125 C 16.625 24.078125 16.519531 24.035156 16.433594 23.949219 C 16.347656 23.863281 16.304688 23.757812 16.304688 23.636719 L 16.304688 19.019531 C 16.304688 18.808594 16.34375 18.605469 16.425781 18.410156 C 16.507812 18.214844 16.621094 18.042969 16.773438 17.894531 C 16.921875 17.742188 17.09375 17.628906 17.289062 17.546875 C 17.484375 17.464844 17.6875 17.425781 17.898438 17.425781 L 18.628906 17.425781 C 18.785156 17.425781 18.882812 17.355469 18.929688 17.207031 C 18.976562 17.058594 18.933594 16.9375 18.804688 16.851562 C 18.523438 16.671875 18.300781 16.433594 18.140625 16.140625 C 17.976562 15.847656 17.898438 15.53125 17.898438 15.195312 L 17.898438 14.859375 C 17.898438 14.597656 17.945312 14.347656 18.046875 14.109375 C 18.144531 13.867188 18.289062 13.65625 18.472656 13.472656 C 18.65625 13.289062 18.867188 13.144531 19.109375 13.046875 C 19.351562 12.945312 19.601562 12.898438 19.859375 12.898438 C 19.871094 12.898438 19.882812 12.898438 19.890625 12.898438 C 19.902344 12.898438 19.910156 12.898438 19.921875 12.898438 C 20.179688 12.898438 20.433594 12.945312 20.671875 13.046875 C 20.914062 13.144531 21.125 13.285156 21.308594 13.472656 C 21.496094 13.65625 21.636719 13.867188 21.738281 14.109375 C 21.835938 14.347656 21.886719 14.597656 21.886719 14.859375 L 21.886719 15.191406 C 21.886719 15.527344 21.804688 15.84375 21.644531 16.136719 C 21.484375 16.433594 21.261719 16.667969 20.976562 16.847656 C 20.847656 16.9375 20.808594 17.054688 20.855469 17.203125 C 20.898438 17.351562 21 17.421875 21.15625 17.421875 L 21.886719 17.421875 C 22.097656 17.421875 22.300781 17.464844 22.496094 17.542969 C 22.691406 17.625 22.863281 17.742188 23.011719 17.890625 C 23.160156 18.039062 23.277344 18.210938 23.359375 18.40625 C 23.4375 18.601562 23.480469 18.804688 23.480469 19.015625 L 23.480469 23.636719 C 23.480469 23.757812 23.4375 23.863281 23.351562 23.949219 C 23.261719 24.035156 23.160156 24.078125 23.035156 24.078125 L 22.371094 24.078125 L 22.0625 25.625 C 22.171875 26.242188 21.914062 26.945312 21.382812 27.410156 C 20.933594 27.8125 20.441406 28.15625 19.90625 28.441406 C 20.871094 28.4375 21.816406 28.300781 22.742188 28.027344 C 23.152344 27.773438 23.535156 27.484375 23.886719 27.152344 C 24.207031 26.839844 24.5625 26.578125 24.953125 26.367188 C 25.234375 26.214844 25.535156 26.136719 25.855469 26.132812 C 25.984375 26.132812 26.113281 26.148438 26.238281 26.183594 C 26.738281 25.777344 27.195312 25.332031 27.613281 24.839844 C 28.027344 24.351562 28.394531 23.824219 28.710938 23.265625 C 29.027344 22.707031 29.285156 22.121094 29.488281 21.511719 C 29.695312 20.902344 29.839844 20.277344 29.925781 19.640625 C 30.011719 19.003906 30.035156 18.363281 30 17.722656 C 29.964844 17.082031 29.867188 16.449219 29.710938 15.824219 C 29.554688 15.199219 29.339844 14.597656 29.070312 14.015625 C 28.800781 13.429688 28.476562 12.878906 28.097656 12.359375 L 20.382812 1.121094 C 20.324219 1.035156 20.25 0.96875 20.15625 0.921875 C 20.066406 0.875 19.96875 0.851562 19.863281 0.851562 C 19.761719 0.851562 19.664062 0.875 19.574219 0.921875 C 19.480469 0.96875 19.40625 1.035156 19.347656 1.121094 L 11.628906 12.359375 C 11.28125 12.84375 10.976562 13.355469 10.714844 13.894531 C 10.457031 14.433594 10.246094 14.988281 10.085938 15.566406 C 9.925781 16.140625 9.816406 16.726562 9.757812 17.324219 C 9.703125 17.917969 9.695312 18.515625 9.746094 19.109375 C 9.792969 19.707031 9.894531 20.292969 10.046875 20.871094 C 10.203125 21.449219 10.402344 22.011719 10.65625 22.550781 C 10.90625 23.09375 11.207031 23.609375 11.550781 24.101562 C 11.894531 24.589844 12.277344 25.046875 12.703125 25.464844 Z M 23.5625 14.34375 C 23.5625 14.121094 23.609375 13.914062 23.695312 13.710938 C 23.785156 13.511719 23.910156 13.335938 24.074219 13.191406 C 24.238281 13.042969 24.421875 12.933594 24.628906 12.867188 C 24.839844 12.796875 25.050781 12.773438 25.269531 12.792969 C 26.078125 12.871094 26.671875 13.59375 26.671875 14.410156 L 26.671875 14.609375 C 26.671875 15.175781 26.433594 15.613281 25.953125 15.917969 C 25.851562 15.988281 25.816406 16.082031 25.851562 16.199219 C 25.890625 16.316406 25.96875 16.375 26.09375 16.375 L 26.667969 16.375 C 26.835938 16.375 26.996094 16.40625 27.152344 16.46875 C 27.308594 16.535156 27.445312 16.625 27.5625 16.742188 C 27.679688 16.863281 27.769531 16.996094 27.835938 17.152344 C 27.898438 17.308594 27.929688 17.46875 27.929688 17.636719 L 27.929688 20.984375 C 27.929688 21.164062 27.867188 21.316406 27.742188 21.445312 C 27.613281 21.570312 27.460938 21.632812 27.28125 21.632812 L 27.054688 21.632812 L 26.886719 23.484375 C 26.03125 24.695312 24.933594 25.621094 23.601562 26.265625 L 23.453125 24.628906 C 23.652344 24.546875 23.8125 24.414062 23.933594 24.234375 C 24.050781 24.050781 24.113281 23.855469 24.113281 23.636719 L 24.113281 19.019531 C 24.113281 18.53125 23.96875 18.09375 23.675781 17.699219 C 23.386719 17.308594 23.011719 17.039062 22.546875 16.894531 C 22.796875 16.546875 23.136719 16.371094 23.566406 16.371094 L 24.144531 16.371094 C 24.265625 16.371094 24.34375 16.3125 24.382812 16.195312 C 24.417969 16.078125 24.386719 15.984375 24.28125 15.917969 C 23.804688 15.609375 23.5625 15.175781 23.5625 14.605469 Z M 16.683594 7.4375 L 18.679688 7.4375 L 18.679688 5.441406 L 21.050781 5.441406 L 21.050781 7.4375 L 23.046875 7.4375 L 23.046875 9.808594 L 21.050781 9.808594 L 21.050781 11.800781 L 18.679688 11.800781 L 18.679688 9.808594 L 16.683594 9.808594 Z M 16.683594 7.4375 " fill-opacity="1" fill-rule="nonzero"/></g><path fill="#00bf63" d="M 21.929688 3.378906 L 25.300781 8.28125 C 25.703125 8.5 26.089844 8.746094 26.460938 9.011719 C 26.835938 9.28125 27.191406 9.570312 27.527344 9.878906 C 27.867188 10.191406 28.183594 10.523438 28.480469 10.871094 C 28.777344 11.21875 29.054688 11.585938 29.308594 11.96875 C 29.558594 12.351562 29.789062 12.75 29.992188 13.160156 C 30.199219 13.570312 30.375 13.992188 30.53125 14.425781 C 30.683594 14.859375 30.808594 15.296875 30.910156 15.746094 C 31.007812 16.195312 31.082031 16.648438 31.125 17.105469 C 31.167969 17.5625 31.1875 18.019531 31.175781 18.476562 C 31.164062 18.9375 31.125 19.390625 31.058594 19.847656 C 30.992188 20.300781 30.898438 20.75 30.773438 21.191406 C 30.652344 21.632812 30.507812 22.066406 30.332031 22.492188 C 30.15625 22.917969 29.957031 23.328125 29.734375 23.730469 C 29.507812 24.128906 29.261719 24.515625 28.988281 24.886719 C 28.71875 25.253906 28.425781 25.609375 28.113281 25.941406 C 27.796875 26.277344 27.464844 26.589844 27.113281 26.882812 C 27.121094 26.902344 27.132812 26.917969 27.144531 26.9375 C 27.164062 26.988281 27.1875 27.039062 27.203125 27.09375 C 27.304688 27.078125 27.410156 27.066406 27.511719 27.066406 C 27.761719 27.0625 27.996094 27.121094 28.210938 27.246094 C 28.429688 27.375 28.59375 27.546875 28.714844 27.769531 C 28.765625 27.867188 28.804688 27.972656 28.832031 28.085938 C 29.128906 28.121094 29.386719 28.242188 29.605469 28.449219 C 29.824219 28.65625 29.960938 28.90625 30.015625 29.199219 C 31.054688 28.238281 31.941406 27.152344 32.671875 25.9375 C 33.40625 24.726562 33.953125 23.433594 34.320312 22.066406 C 34.683594 20.695312 34.851562 19.300781 34.820312 17.886719 C 34.792969 16.46875 34.5625 15.085938 34.140625 13.734375 C 33.71875 12.378906 33.113281 11.113281 32.332031 9.933594 C 31.546875 8.753906 30.613281 7.703125 29.535156 6.789062 C 28.453125 5.871094 27.265625 5.125 25.972656 4.546875 C 24.679688 3.964844 23.332031 3.578125 21.925781 3.382812 Z M 21.929688 3.378906 " fill-opacity="1" fill-rule="nonzero"/><g clip-path="url(#be00bc0f17)"><path fill="#00bf63" d="M 10.683594 24.800781 C 10.449219 24.476562 10.234375 24.140625 10.035156 23.792969 C 9.839844 23.449219 9.660156 23.089844 9.5 22.726562 C 9.339844 22.359375 9.199219 21.988281 9.082031 21.605469 C 8.960938 21.226562 8.859375 20.839844 8.78125 20.449219 C 8.703125 20.058594 8.644531 19.664062 8.605469 19.265625 C 8.566406 18.867188 8.550781 18.46875 8.554688 18.070312 C 8.5625 17.671875 8.585938 17.273438 8.632812 16.878906 C 8.679688 16.480469 8.746094 16.085938 8.835938 15.699219 C 8.925781 15.308594 9.03125 14.925781 9.160156 14.546875 C 9.289062 14.171875 9.4375 13.800781 9.605469 13.4375 C 9.773438 13.074219 9.960938 12.722656 10.167969 12.382812 C 10.371094 12.039062 10.59375 11.707031 10.835938 11.390625 C 11.078125 11.070312 11.332031 10.765625 11.605469 10.476562 C 11.878906 10.183594 12.164062 9.90625 12.46875 9.644531 C 12.769531 9.382812 13.085938 9.140625 13.414062 8.914062 C 13.742188 8.683594 14.078125 8.476562 14.429688 8.28125 L 17.796875 3.378906 C 16.816406 3.515625 15.859375 3.75 14.925781 4.078125 C 13.992188 4.402344 13.097656 4.820312 12.246094 5.324219 C 11.394531 5.828125 10.601562 6.410156 9.863281 7.070312 C 9.128906 7.734375 8.464844 8.460938 7.871094 9.253906 C 7.28125 10.046875 6.769531 10.890625 6.347656 11.785156 C 5.921875 12.679688 5.589844 13.605469 5.347656 14.566406 C 5.105469 15.527344 4.960938 16.5 4.914062 17.488281 C 4.867188 18.480469 4.917969 19.460938 5.0625 20.441406 C 6.308594 22.125 8.4375 23.820312 10.683594 24.800781 Z M 10.683594 24.800781 " fill-opacity="1" fill-rule="nonzero"/></g><path fill="#004aad" d="M 27.878906 29.203125 C 28.640625 28.128906 27.75 27.070312 26.238281 28.414062 C 26.976562 27.535156 26.390625 26.441406 25.28125 27.007812 C 24.527344 27.390625 24.242188 27.949219 23.105469 28.644531 C 20.503906 30.234375 17.414062 29.429688 16.601562 28.621094 C 18.574219 28.421875 19.785156 27.859375 20.90625 26.875 C 21.804688 26.078125 21.625 24.113281 18.214844 25.574219 C 12.878906 27.859375 7.277344 24.808594 5.355469 21.917969 C 5.511719 22.515625 5.699219 23.105469 5.925781 23.679688 C 6.15625 24.257812 6.414062 24.816406 6.710938 25.359375 C 7.007812 25.902344 7.335938 26.425781 7.699219 26.929688 C 8.058594 27.433594 8.449219 27.910156 8.871094 28.363281 C 9.289062 28.820312 9.738281 29.246094 10.210938 29.644531 C 10.683594 30.042969 11.179688 30.414062 11.699219 30.75 C 12.21875 31.085938 12.753906 31.390625 13.3125 31.660156 C 13.867188 31.933594 14.4375 32.167969 15.023438 32.367188 C 15.609375 32.566406 16.207031 32.730469 16.8125 32.855469 C 17.417969 32.984375 18.03125 33.070312 18.648438 33.121094 C 19.265625 33.171875 19.882812 33.183594 20.5 33.15625 C 21.121094 33.128906 21.734375 33.066406 22.34375 32.960938 C 22.953125 32.859375 23.554688 32.71875 24.148438 32.542969 C 24.742188 32.363281 25.320312 32.152344 25.890625 31.902344 C 26.457031 31.652344 27.003906 31.371094 27.535156 31.050781 C 28.066406 30.734375 28.578125 30.386719 29.066406 30.003906 C 29.757812 29.414062 28.945312 28.140625 27.878906 29.203125 Z M 27.878906 29.203125 " fill-opacity="1" fill-rule="nonzero"/><g fill="#004aad" fill-opacity="1"><g transform="translate(38.284612, 19.904555)"><g><path d="M 22.546875 -11.6875 L 20.671875 -11.6875 L 20.671875 0 L 17.65625 0 L 17.65625 -11.6875 L 14.53125 -11.6875 L 14.53125 0 L 11.53125 0 L 11.53125 -5.046875 L 9.65625 -5.046875 L 9.65625 -4.875 C 9.65625 -3.738281 9.289062 -2.828125 8.5625 -2.140625 C 7.832031 -1.460938 6.863281 -1.125 5.65625 -1.125 C 4.757812 -1.125 3.972656 -1.296875 3.296875 -1.640625 C 2.617188 -1.984375 2.09375 -2.457031 1.71875 -3.0625 C 1.34375 -3.675781 1.15625 -4.382812 1.15625 -5.1875 L 3.96875 -5.1875 C 3.96875 -4.769531 4.101562 -4.421875 4.375 -4.140625 C 4.65625 -3.859375 5.019531 -3.71875 5.46875 -3.71875 C 5.914062 -3.71875 6.269531 -3.851562 6.53125 -4.125 C 6.789062 -4.394531 6.921875 -4.75 6.921875 -5.1875 C 6.921875 -5.601562 6.769531 -5.957031 6.46875 -6.25 C 6.175781 -6.550781 5.734375 -6.703125 5.140625 -6.703125 L 4.28125 -6.703125 L 4.28125 -9.140625 L 5.140625 -9.140625 C 5.640625 -9.140625 6.035156 -9.257812 6.328125 -9.5 C 6.617188 -9.75 6.765625 -10.070312 6.765625 -10.46875 C 6.765625 -10.882812 6.640625 -11.210938 6.390625 -11.453125 C 6.148438 -11.691406 5.835938 -11.8125 5.453125 -11.8125 C 5.035156 -11.8125 4.695312 -11.691406 4.4375 -11.453125 C 4.175781 -11.210938 4.046875 -10.898438 4.046875 -10.515625 L 1.265625 -10.515625 C 1.265625 -11.265625 1.4375 -11.929688 1.78125 -12.515625 C 2.125 -13.109375 2.613281 -13.566406 3.25 -13.890625 C 3.882812 -14.210938 4.617188 -14.375 5.453125 -14.375 C 6.660156 -14.375 7.628906 -14.054688 8.359375 -13.421875 C 9.085938 -12.785156 9.453125 -11.9375 9.453125 -10.875 C 9.453125 -10.1875 9.273438 -9.59375 8.921875 -9.09375 C 8.578125 -8.59375 8.078125 -8.234375 7.421875 -8.015625 L 7.421875 -7.9375 C 7.804688 -7.84375 8.128906 -7.703125 8.390625 -7.515625 L 11.53125 -7.515625 L 11.53125 -14.203125 L 22.546875 -14.203125 Z M 22.546875 -11.6875 "/></g></g></g><g fill="#004aad" fill-opacity="1"><g transform="translate(60.446181, 19.904555)"><g><path d="M 4.1875 -5.75 L 4.1875 -3.84375 C 4.1875 -3.40625 4.28125 -3.050781 4.46875 -2.78125 C 4.664062 -2.519531 4.960938 -2.390625 5.359375 -2.390625 C 5.710938 -2.390625 5.988281 -2.519531 6.1875 -2.78125 C 6.394531 -3.039062 6.5 -3.367188 6.5 -3.765625 L 6.5 -4.296875 L 9.40625 -4.296875 L 9.40625 -3.859375 C 9.40625 -2.628906 9.050781 -1.648438 8.34375 -0.921875 C 7.644531 -0.191406 6.664062 0.171875 5.40625 0.171875 C 4.507812 0.171875 3.742188 -0.0078125 3.109375 -0.375 C 2.484375 -0.738281 2.007812 -1.234375 1.6875 -1.859375 C 1.363281 -2.484375 1.203125 -3.191406 1.203125 -3.984375 L 1.203125 -8.171875 L 3.140625 -8.171875 C 4.128906 -8.171875 4.832031 -8.378906 5.25 -8.796875 C 5.664062 -9.222656 5.875 -9.847656 5.875 -10.671875 L 5.875 -11.6875 L -0.328125 -11.6875 L -0.328125 -14.203125 L 10.515625 -14.203125 L 10.515625 -11.6875 L 8.890625 -11.6875 L 8.890625 -10.671875 C 8.890625 -9.148438 8.53125 -7.945312 7.8125 -7.0625 C 7.101562 -6.1875 5.925781 -5.75 4.28125 -5.75 Z M 4.1875 -5.75 "/></g></g></g><g fill="#004aad" fill-opacity="1"><g transform="translate(70.634749, 19.904555)"><g><path d="M 6.453125 -14.203125 L 6.453125 -11.6875 L 4.5625 -11.6875 L 4.5625 0 L 1.546875 0 L 1.546875 -11.6875 L -0.328125 -11.6875 L -0.328125 -14.203125 L 1.671875 -14.203125 C 1.160156 -14.984375 0.75 -15.546875 0.4375 -15.890625 C 0.125 -16.234375 -0.203125 -16.460938 -0.546875 -16.578125 C -0.890625 -16.703125 -1.351562 -16.765625 -1.9375 -16.765625 L -2.9375 -16.765625 L -2.9375 -19.1875 L -2 -19.1875 C -0.925781 -19.175781 -0.078125 -19.0625 0.546875 -18.84375 C 1.171875 -18.625 1.773438 -18.164062 2.359375 -17.46875 C 2.953125 -16.78125 3.660156 -15.691406 4.484375 -14.203125 Z M 6.453125 -14.203125 "/></g></g></g><g fill="#004aad" fill-opacity="1"><g transform="translate(76.77475, 19.904555)"><g><path d="M 24.375 -11.6875 L 22.484375 -11.6875 L 22.484375 0 L 19.453125 0 L 19.453125 -3 C 19.046875 -2.550781 18.53125 -2.203125 17.90625 -1.953125 C 17.289062 -1.703125 16.578125 -1.578125 15.765625 -1.578125 C 14.117188 -1.578125 12.84375 -2.0625 11.9375 -3.03125 C 11.03125 -4 10.578125 -5.316406 10.578125 -6.984375 C 10.578125 -7.410156 10.601562 -7.796875 10.65625 -8.140625 L 10.84375 -8.140625 C 11.894531 -8.140625 12.628906 -8.363281 13.046875 -8.8125 C 13.472656 -9.269531 13.6875 -9.941406 13.6875 -10.828125 L 13.6875 -11.6875 L 8.65625 -11.6875 L 8.65625 -7.34375 C 8.65625 -6.113281 8.328125 -5.125 7.671875 -4.375 C 7.023438 -3.625 6.039062 -3.25 4.71875 -3.25 C 3.4375 -3.25 2.441406 -3.585938 1.734375 -4.265625 C 1.035156 -4.953125 0.6875 -5.925781 0.6875 -7.1875 C 0.6875 -7.476562 0.691406 -7.6875 0.703125 -7.8125 L 3.625 -7.8125 L 3.625 -7.21875 C 3.625 -6.28125 3.960938 -5.8125 4.640625 -5.8125 C 5.296875 -5.8125 5.625 -6.285156 5.625 -7.234375 L 5.625 -11.6875 L -0.328125 -11.6875 L -0.328125 -14.203125 L 24.375 -14.203125 Z M 19.453125 -11.6875 L 16.65625 -11.6875 L 16.65625 -10.265625 C 16.65625 -9.234375 16.40625 -8.394531 15.90625 -7.75 C 15.414062 -7.113281 14.632812 -6.726562 13.5625 -6.59375 C 13.59375 -5.84375 13.851562 -5.238281 14.34375 -4.78125 C 14.84375 -4.320312 15.535156 -4.09375 16.421875 -4.09375 C 17.347656 -4.09375 18.082031 -4.378906 18.625 -4.953125 C 19.175781 -5.523438 19.453125 -6.257812 19.453125 -7.15625 Z M 19.453125 -11.6875 "/></g></g></g><g fill="#004aad" fill-opacity="1"><g transform="translate(100.816694, 19.904555)"><g/></g></g><g fill="#004aad" fill-opacity="1"><g transform="translate(104.884446, 19.904555)"><g><path d="M 16.125 -11.6875 L 14.234375 -11.6875 L 14.234375 0 L 11.203125 0 L 11.203125 -7 L 8.78125 -7 C 9.113281 -6.40625 9.28125 -5.75 9.28125 -5.03125 C 9.28125 -4.25 9.097656 -3.578125 8.734375 -3.015625 C 8.367188 -2.453125 7.882812 -2.03125 7.28125 -1.75 C 6.675781 -1.46875 6 -1.328125 5.25 -1.328125 C 4.488281 -1.328125 3.773438 -1.488281 3.109375 -1.8125 C 2.453125 -2.132812 1.925781 -2.601562 1.53125 -3.21875 C 1.132812 -3.84375 0.9375 -4.570312 0.9375 -5.40625 C 0.9375 -6.289062 1.140625 -7.039062 1.546875 -7.65625 C 1.960938 -8.28125 2.515625 -8.742188 3.203125 -9.046875 C 3.890625 -9.359375 4.65625 -9.515625 5.5 -9.515625 L 11.203125 -9.515625 L 11.203125 -11.6875 L -0.328125 -11.6875 L -0.328125 -14.203125 L 16.125 -14.203125 Z M 5.296875 -3.875 C 5.765625 -3.875 6.144531 -4.015625 6.4375 -4.296875 C 6.738281 -4.585938 6.890625 -4.96875 6.890625 -5.4375 C 6.890625 -5.894531 6.738281 -6.269531 6.4375 -6.5625 C 6.144531 -6.851562 5.765625 -7 5.296875 -7 C 4.816406 -7 4.425781 -6.851562 4.125 -6.5625 C 3.820312 -6.269531 3.671875 -5.894531 3.671875 -5.4375 C 3.671875 -4.96875 3.816406 -4.585938 4.109375 -4.296875 C 4.410156 -4.015625 4.804688 -3.875 5.296875 -3.875 Z M 5.296875 -3.875 "/></g></g></g><g fill="#004aad" fill-opacity="1"><g transform="translate(120.67576, 19.904555)"><g><path d="M -4.40625 -14.109375 C -4.9375 -14.921875 -5.359375 -15.503906 -5.671875 -15.859375 C -5.992188 -16.222656 -6.320312 -16.460938 -6.65625 -16.578125 C -7 -16.703125 -7.472656 -16.765625 -8.078125 -16.765625 L -9.078125 -16.765625 L -9.078125 -19.1875 L -8.140625 -19.1875 C -7.066406 -19.175781 -6.210938 -19.054688 -5.578125 -18.828125 C -4.953125 -18.609375 -4.34375 -18.148438 -3.75 -17.453125 C -3.15625 -16.753906 -2.4375 -15.640625 -1.59375 -14.109375 Z M -4.40625 -14.109375 "/></g></g></g><g fill="#004aad" fill-opacity="1"><g transform="translate(120.67576, 19.904555)"><g><path d="M 13.3125 -11.6875 L 11.4375 -11.6875 L 11.4375 0 L 8.421875 0 L 8.421875 -4.1875 C 7.742188 -3.4375 6.796875 -3.0625 5.578125 -3.0625 C 4.210938 -3.0625 3.160156 -3.519531 2.421875 -4.4375 C 1.679688 -5.351562 1.3125 -6.546875 1.3125 -8.015625 L 1.3125 -11.6875 L -0.328125 -11.6875 L -0.328125 -14.203125 L 13.3125 -14.203125 Z M 8.421875 -11.6875 L 4.3125 -11.6875 L 4.3125 -8.015625 C 4.3125 -7.273438 4.476562 -6.6875 4.8125 -6.25 C 5.15625 -5.820312 5.675781 -5.609375 6.375 -5.609375 C 7.019531 -5.609375 7.519531 -5.816406 7.875 -6.234375 C 8.238281 -6.660156 8.421875 -7.195312 8.421875 -7.84375 Z M 8.421875 -11.6875 "/></g></g></g><g fill="#004aad" fill-opacity="1"><g transform="translate(133.665701, 19.904555)"><g><path d="M 1.546875 0 L 1.546875 -11.6875 L -0.328125 -11.6875 L -0.328125 -14.203125 L 6.453125 -14.203125 L 6.453125 -11.6875 L 4.5625 -11.6875 L 4.5625 0 Z M 1.546875 0 "/></g></g></g><g fill="#004aad" fill-opacity="1"><g transform="translate(139.786518, 19.904555)"><g><path d="M 14.140625 -11.6875 L 14.140625 -9.65625 C 14.867188 -9.320312 15.445312 -8.796875 15.875 -8.078125 C 16.300781 -7.359375 16.515625 -6.476562 16.515625 -5.4375 C 16.515625 -4.488281 16.320312 -3.648438 15.9375 -2.921875 C 15.5625 -2.191406 15 -1.617188 14.25 -1.203125 C 13.5 -0.785156 12.597656 -0.578125 11.546875 -0.578125 C 11.296875 -0.578125 11.082031 -0.582031 10.90625 -0.59375 L 10.90625 -3.21875 L 11.421875 -3.1875 C 12.046875 -3.1875 12.539062 -3.382812 12.90625 -3.78125 C 13.28125 -4.175781 13.46875 -4.710938 13.46875 -5.390625 C 13.46875 -5.992188 13.316406 -6.476562 13.015625 -6.84375 C 12.710938 -7.21875 12.289062 -7.40625 11.75 -7.40625 C 11.15625 -7.40625 10.71875 -7.191406 10.4375 -6.765625 C 10.15625 -6.347656 10.015625 -5.804688 10.015625 -5.140625 L 10.015625 -4.6875 L 7.515625 -4.6875 L 7.515625 -5.140625 C 7.515625 -5.796875 7.375 -6.335938 7.09375 -6.765625 C 6.8125 -7.191406 6.390625 -7.40625 5.828125 -7.40625 C 5.265625 -7.40625 4.828125 -7.222656 4.515625 -6.859375 C 4.210938 -6.492188 4.0625 -6.003906 4.0625 -5.390625 C 4.0625 -4.710938 4.25 -4.175781 4.625 -3.78125 C 5 -3.382812 5.5 -3.1875 6.125 -3.1875 L 6.640625 -3.21875 L 6.640625 -0.59375 C 6.460938 -0.582031 6.242188 -0.578125 5.984375 -0.578125 C 4.929688 -0.578125 4.03125 -0.785156 3.28125 -1.203125 C 2.539062 -1.617188 1.976562 -2.191406 1.59375 -2.921875 C 1.207031 -3.648438 1.015625 -4.488281 1.015625 -5.4375 C 1.015625 -6.445312 1.210938 -7.296875 1.609375 -7.984375 C 2.003906 -8.671875 2.53125 -9.1875 3.1875 -9.53125 C 3.851562 -9.875 4.585938 -10.046875 5.390625 -10.046875 C 6.242188 -10.046875 6.941406 -9.84375 7.484375 -9.4375 C 8.035156 -9.039062 8.453125 -8.515625 8.734375 -7.859375 L 8.78125 -7.859375 C 9.28125 -8.992188 10.082031 -9.6875 11.1875 -9.9375 L 11.1875 -11.6875 L -0.328125 -11.6875 L -0.328125 -14.203125 L 17.859375 -14.203125 L 17.859375 -11.6875 Z M 14.140625 -11.6875 "/></g></g></g><g fill="#004aad" fill-opacity="1"><g transform="translate(157.331343, 19.904555)"><g/></g></g><g clip-path="url(#f42e4f0bdd)"><g fill="#004aad" fill-opacity="1"><g transform="translate(161.399095, 19.904555)"><g/></g></g></g><g fill="#00bf63" fill-opacity="1"><g transform="translate(40.883191, 29.680567)"><g><path d="M 5.84375 -4.90625 L 5.0625 -4.90625 L 5.0625 0 L 3.796875 0 L 3.796875 -2.875 L 2.78125 -2.875 C 2.457031 -2.875 2.195312 -2.789062 2 -2.625 C 1.800781 -2.46875 1.703125 -2.242188 1.703125 -1.953125 C 1.703125 -1.648438 1.785156 -1.414062 1.953125 -1.25 C 2.128906 -1.09375 2.382812 -1.015625 2.71875 -1.015625 L 2.875 -1.015625 L 2.875 -0.015625 L 2.53125 -0.015625 C 1.90625 -0.015625 1.394531 -0.175781 1 -0.5 C 0.613281 -0.820312 0.421875 -1.3125 0.421875 -1.96875 C 0.421875 -2.632812 0.632812 -3.132812 1.0625 -3.46875 C 1.488281 -3.800781 2.039062 -3.96875 2.71875 -3.96875 L 3.796875 -3.96875 L 3.796875 -4.90625 L -0.140625 -4.90625 L -0.140625 -5.96875 L 5.84375 -5.96875 Z M 5.84375 -4.90625 "/></g></g></g><g fill="#00bf63" fill-opacity="1"><g transform="translate(46.587471, 29.680567)"><g><path d="M 5.59375 -4.90625 L 4.8125 -4.90625 L 4.8125 0 L 3.546875 0 L 3.546875 -1.75 C 3.253906 -1.445312 2.851562 -1.296875 2.34375 -1.296875 C 1.769531 -1.296875 1.328125 -1.484375 1.015625 -1.859375 C 0.703125 -2.242188 0.546875 -2.75 0.546875 -3.375 L 0.546875 -4.90625 L -0.140625 -4.90625 L -0.140625 -5.96875 L 5.59375 -5.96875 Z M 3.546875 -4.90625 L 1.8125 -4.90625 L 1.8125 -3.375 C 1.8125 -3.0625 1.878906 -2.8125 2.015625 -2.625 C 2.160156 -2.445312 2.378906 -2.359375 2.671875 -2.359375 C 2.953125 -2.359375 3.164062 -2.445312 3.3125 -2.625 C 3.46875 -2.800781 3.546875 -3.023438 3.546875 -3.296875 Z M 3.546875 -4.90625 "/></g></g></g><g fill="#00bf63" fill-opacity="1"><g transform="translate(52.041985, 29.680567)"><g><path d="M 0.65625 0 L 0.65625 -4.90625 L -0.140625 -4.90625 L -0.140625 -5.96875 L 2.703125 -5.96875 L 2.703125 -4.90625 L 1.921875 -4.90625 L 1.921875 0 Z M 0.65625 0 "/></g></g></g><g fill="#00bf63" fill-opacity="1"><g transform="translate(54.612132, 29.680567)"><g><path d="M 4.515625 -8.40625 C 5.046875 -8.40625 5.460938 -8.265625 5.765625 -7.984375 C 6.066406 -7.710938 6.210938 -7.328125 6.203125 -6.828125 L 5.1875 -6.828125 C 5.175781 -6.992188 5.109375 -7.132812 4.984375 -7.25 C 4.867188 -7.375 4.703125 -7.4375 4.484375 -7.4375 C 4.242188 -7.4375 4.0625 -7.359375 3.9375 -7.203125 C 3.8125 -7.046875 3.75 -6.832031 3.75 -6.5625 L 3.75 -5.96875 L 4.84375 -5.96875 L 4.84375 -4.90625 L 3.78125 -4.90625 L 3.78125 -3.421875 L 2.296875 -3.421875 C 2.140625 -3.421875 2.007812 -3.390625 1.90625 -3.328125 C 1.800781 -3.273438 1.75 -3.179688 1.75 -3.046875 C 1.75 -2.921875 1.796875 -2.828125 1.890625 -2.765625 C 1.984375 -2.710938 2.101562 -2.6875 2.25 -2.6875 L 2.609375 -2.6875 C 3.078125 -2.6875 3.46875 -2.570312 3.78125 -2.34375 C 4.101562 -2.113281 4.265625 -1.742188 4.265625 -1.234375 C 4.265625 -0.828125 4.140625 -0.492188 3.890625 -0.234375 C 3.640625 0.015625 3.296875 0.140625 2.859375 0.140625 C 2.617188 0.140625 2.410156 0.0976562 2.234375 0.015625 C 2.066406 -0.0664062 1.941406 -0.164062 1.859375 -0.28125 L 1.859375 0.671875 L 0.65625 0.671875 L 0.65625 -1.390625 L 1.796875 -1.390625 C 1.804688 -1.203125 1.875 -1.054688 2 -0.953125 C 2.125 -0.847656 2.285156 -0.796875 2.484375 -0.796875 C 2.671875 -0.796875 2.8125 -0.835938 2.90625 -0.921875 C 3.007812 -1.015625 3.0625 -1.132812 3.0625 -1.28125 C 3.0625 -1.457031 3 -1.585938 2.875 -1.671875 C 2.75 -1.753906 2.578125 -1.796875 2.359375 -1.796875 C 2.148438 -1.796875 1.984375 -1.800781 1.859375 -1.8125 C 1.484375 -1.820312 1.160156 -1.929688 0.890625 -2.140625 C 0.617188 -2.347656 0.484375 -2.65625 0.484375 -3.0625 C 0.484375 -3.476562 0.617188 -3.789062 0.890625 -4 C 1.171875 -4.21875 1.53125 -4.328125 1.96875 -4.328125 L 2.5625 -4.328125 L 2.5625 -4.90625 L -0.171875 -4.90625 L -0.171875 -5.96875 L 2.625 -5.96875 L 2.625 -6.578125 C 2.625 -6.878906 2.691406 -7.171875 2.828125 -7.453125 C 2.960938 -7.734375 3.171875 -7.960938 3.453125 -8.140625 C 3.734375 -8.316406 4.085938 -8.40625 4.515625 -8.40625 Z M 4.015625 -6.671875 C 4.015625 -6.796875 4.054688 -6.894531 4.140625 -6.96875 C 4.222656 -7.050781 4.328125 -7.09375 4.453125 -7.09375 C 4.566406 -7.09375 4.664062 -7.050781 4.75 -6.96875 C 4.832031 -6.894531 4.875 -6.796875 4.875 -6.671875 C 4.875 -6.554688 4.832031 -6.457031 4.75 -6.375 C 4.664062 -6.289062 4.566406 -6.25 4.453125 -6.25 C 4.328125 -6.25 4.222656 -6.289062 4.140625 -6.375 C 4.054688 -6.457031 4.015625 -6.554688 4.015625 -6.671875 Z M 4.015625 -6.671875 "/></g></g></g><g fill="#00bf63" fill-opacity="1"><g transform="translate(59.269015, 29.680567)"><g><path d="M 4.5625 -4.90625 L 4.5625 -3.71875 C 4.675781 -3.894531 4.832031 -4.03125 5.03125 -4.125 C 5.226562 -4.226562 5.457031 -4.28125 5.71875 -4.28125 C 6.050781 -4.28125 6.34375 -4.195312 6.59375 -4.03125 C 6.84375 -3.875 7.03125 -3.65625 7.15625 -3.375 C 7.289062 -3.09375 7.359375 -2.78125 7.359375 -2.4375 C 7.359375 -2.050781 7.285156 -1.71875 7.140625 -1.4375 C 6.992188 -1.164062 6.796875 -0.957031 6.546875 -0.8125 C 6.296875 -0.664062 6.007812 -0.59375 5.6875 -0.59375 C 5.5 -0.59375 5.316406 -0.613281 5.140625 -0.65625 L 5.140625 -1.65625 C 5.203125 -1.632812 5.269531 -1.625 5.34375 -1.625 C 5.5625 -1.625 5.738281 -1.691406 5.875 -1.828125 C 6.007812 -1.972656 6.078125 -2.164062 6.078125 -2.40625 C 6.078125 -2.632812 6.003906 -2.820312 5.859375 -2.96875 C 5.722656 -3.125 5.546875 -3.203125 5.328125 -3.203125 C 5.078125 -3.203125 4.882812 -3.117188 4.75 -2.953125 C 4.625 -2.785156 4.5625 -2.578125 4.5625 -2.328125 L 4.5625 0 L 3.34375 0 L 3.34375 -1.125 C 3.21875 -0.9375 3.046875 -0.785156 2.828125 -0.671875 C 2.617188 -0.566406 2.375 -0.515625 2.09375 -0.515625 C 1.757812 -0.515625 1.460938 -0.59375 1.203125 -0.75 C 0.953125 -0.90625 0.757812 -1.128906 0.625 -1.421875 C 0.488281 -1.710938 0.421875 -2.039062 0.421875 -2.40625 C 0.421875 -2.96875 0.570312 -3.421875 0.875 -3.765625 C 1.1875 -4.109375 1.609375 -4.28125 2.140625 -4.28125 C 2.421875 -4.28125 2.660156 -4.226562 2.859375 -4.125 C 3.066406 -4.03125 3.226562 -3.894531 3.34375 -3.71875 L 3.34375 -4.90625 L -0.140625 -4.90625 L -0.140625 -5.96875 L 7.921875 -5.96875 L 7.921875 -4.90625 Z M 2.53125 -1.578125 C 2.78125 -1.578125 2.976562 -1.660156 3.125 -1.828125 C 3.269531 -1.992188 3.34375 -2.1875 3.34375 -2.40625 C 3.34375 -2.625 3.269531 -2.8125 3.125 -2.96875 C 2.976562 -3.125 2.78125 -3.203125 2.53125 -3.203125 C 2.289062 -3.203125 2.09375 -3.125 1.9375 -2.96875 C 1.78125 -2.820312 1.703125 -2.628906 1.703125 -2.390625 C 1.703125 -2.148438 1.773438 -1.953125 1.921875 -1.796875 C 2.078125 -1.648438 2.28125 -1.578125 2.53125 -1.578125 Z M 2.53125 -1.578125 "/></g></g></g><g fill="#00bf63" fill-opacity="1"><g transform="translate(67.043916, 29.680567)"><g><path d="M 2.703125 -5.96875 L 2.703125 -4.90625 L 1.921875 -4.90625 L 1.921875 0 L 0.65625 0 L 0.65625 -4.90625 L -0.140625 -4.90625 L -0.140625 -5.96875 L 0.703125 -5.96875 C 0.484375 -6.289062 0.304688 -6.523438 0.171875 -6.671875 C 0.046875 -6.816406 -0.0820312 -6.914062 -0.21875 -6.96875 C -0.363281 -7.019531 -0.5625 -7.046875 -0.8125 -7.046875 L -1.234375 -7.046875 L -1.234375 -8.0625 L -0.84375 -8.0625 C -0.382812 -8.050781 -0.0234375 -8 0.234375 -7.90625 C 0.492188 -7.820312 0.742188 -7.632812 0.984375 -7.34375 C 1.234375 -7.050781 1.535156 -6.59375 1.890625 -5.96875 Z M 2.703125 -5.96875 "/></g></g></g><g fill="#00bf63" fill-opacity="1"><g transform="translate(69.622121, 29.680567)"><g/></g></g><g fill="#00bf63" fill-opacity="1"><g transform="translate(71.330179, 29.680567)"><g><path d="M 2.328125 -3.421875 C 2.171875 -3.421875 2.039062 -3.390625 1.9375 -3.328125 C 1.84375 -3.273438 1.796875 -3.1875 1.796875 -3.0625 C 1.796875 -2.925781 1.835938 -2.828125 1.921875 -2.765625 C 2.015625 -2.710938 2.132812 -2.6875 2.28125 -2.6875 L 2.640625 -2.6875 C 3.109375 -2.6875 3.5 -2.570312 3.8125 -2.34375 C 4.132812 -2.113281 4.296875 -1.757812 4.296875 -1.28125 C 4.296875 -0.832031 4.132812 -0.476562 3.8125 -0.21875 C 3.5 0.03125 3.054688 0.15625 2.484375 0.15625 C 1.878906 0.15625 1.382812 0.0195312 1 -0.25 C 0.625 -0.519531 0.425781 -0.898438 0.40625 -1.390625 L 1.671875 -1.390625 C 1.671875 -1.203125 1.742188 -1.054688 1.890625 -0.953125 C 2.035156 -0.847656 2.21875 -0.796875 2.4375 -0.796875 C 2.644531 -0.796875 2.804688 -0.835938 2.921875 -0.921875 C 3.046875 -1.015625 3.109375 -1.132812 3.109375 -1.28125 C 3.109375 -1.457031 3.039062 -1.585938 2.90625 -1.671875 C 2.78125 -1.753906 2.613281 -1.796875 2.40625 -1.796875 L 2.109375 -1.796875 C 1.691406 -1.796875 1.320312 -1.890625 1 -2.078125 C 0.6875 -2.265625 0.53125 -2.601562 0.53125 -3.09375 C 0.53125 -3.5 0.664062 -3.800781 0.9375 -4 C 1.21875 -4.207031 1.570312 -4.3125 2 -4.3125 L 2.578125 -4.3125 L 2.578125 -4.90625 L -0.140625 -4.90625 L -0.140625 -5.96875 L 4.6875 -5.96875 L 4.6875 -4.90625 L 3.796875 -4.90625 L 3.796875 -3.421875 Z M 2.328125 -3.421875 "/></g></g></g><g fill="#00bf63" fill-opacity="1"><g transform="translate(75.89038, 29.680567)"><g><path d="M 0.65625 0 L 0.65625 -4.90625 L -0.140625 -4.90625 L -0.140625 -5.96875 L 2.703125 -5.96875 L 2.703125 -4.90625 L 1.921875 -4.90625 L 1.921875 0 Z M 0.65625 0 "/></g></g></g><g fill="#00bf63" fill-opacity="1"><g transform="translate(78.460527, 29.680567)"><g><path d="M 8.4375 -3.234375 C 8.101562 -3.234375 7.828125 -3.144531 7.609375 -2.96875 C 7.390625 -2.789062 7.28125 -2.539062 7.28125 -2.21875 C 7.28125 -1.9375 7.375 -1.703125 7.5625 -1.515625 C 7.75 -1.335938 7.992188 -1.25 8.296875 -1.25 C 8.617188 -1.25 8.875 -1.34375 9.0625 -1.53125 C 9.257812 -1.726562 9.359375 -1.976562 9.359375 -2.28125 L 10.546875 -2.28125 C 10.546875 -1.851562 10.457031 -1.476562 10.28125 -1.15625 C 10.101562 -0.84375 9.84375 -0.597656 9.5 -0.421875 C 9.164062 -0.242188 8.78125 -0.15625 8.34375 -0.15625 C 7.882812 -0.15625 7.476562 -0.238281 7.125 -0.40625 C 6.78125 -0.582031 6.507812 -0.828125 6.3125 -1.140625 C 6.113281 -1.453125 6.015625 -1.8125 6.015625 -2.21875 C 6.015625 -2.3125 6.015625 -2.378906 6.015625 -2.421875 C 6.015625 -2.648438 5.945312 -2.835938 5.8125 -2.984375 C 5.6875 -3.128906 5.515625 -3.203125 5.296875 -3.203125 C 5.054688 -3.203125 4.875 -3.117188 4.75 -2.953125 C 4.625 -2.785156 4.5625 -2.578125 4.5625 -2.328125 L 4.5625 0 L 3.34375 0 L 3.34375 -1.125 C 3.21875 -0.9375 3.046875 -0.785156 2.828125 -0.671875 C 2.617188 -0.566406 2.375 -0.515625 2.09375 -0.515625 C 1.757812 -0.515625 1.460938 -0.59375 1.203125 -0.75 C 0.953125 -0.90625 0.757812 -1.128906 0.625 -1.421875 C 0.488281 -1.710938 0.421875 -2.039062 0.421875 -2.40625 C 0.421875 -2.96875 0.570312 -3.421875 0.875 -3.765625 C 1.1875 -4.109375 1.609375 -4.28125 2.140625 -4.28125 C 2.421875 -4.28125 2.660156 -4.226562 2.859375 -4.125 C 3.066406 -4.03125 3.226562 -3.894531 3.34375 -3.71875 L 3.34375 -4.90625 L -0.140625 -4.90625 L -0.140625 -5.96875 L 10.9375 -5.96875 L 10.9375 -4.90625 L 9.53125 -4.90625 L 9.53125 -3.234375 Z M 6.78125 -3.84375 C 7.175781 -4.144531 7.679688 -4.296875 8.296875 -4.296875 L 8.296875 -4.90625 L 4.5625 -4.90625 L 4.5625 -3.734375 C 4.675781 -3.898438 4.828125 -4.03125 5.015625 -4.125 C 5.210938 -4.226562 5.441406 -4.28125 5.703125 -4.28125 C 6.148438 -4.28125 6.507812 -4.132812 6.78125 -3.84375 Z M 2.53125 -1.578125 C 2.78125 -1.578125 2.976562 -1.660156 3.125 -1.828125 C 3.269531 -1.992188 3.34375 -2.1875 3.34375 -2.40625 C 3.34375 -2.625 3.269531 -2.8125 3.125 -2.96875 C 2.976562 -3.125 2.78125 -3.203125 2.53125 -3.203125 C 2.289062 -3.203125 2.09375 -3.125 1.9375 -2.96875 C 1.78125 -2.820312 1.703125 -2.628906 1.703125 -2.390625 C 1.703125 -2.148438 1.773438 -1.953125 1.921875 -1.796875 C 2.078125 -1.648438 2.28125 -1.578125 2.53125 -1.578125 Z M 2.53125 -1.578125 "/></g></g></g><g fill="#00bf63" fill-opacity="1"><g transform="translate(89.2487, 29.680567)"><g><path d="M 1.75 -2.421875 L 1.75 -1.609375 C 1.75 -1.429688 1.789062 -1.285156 1.875 -1.171875 C 1.957031 -1.066406 2.082031 -1.015625 2.25 -1.015625 C 2.394531 -1.015625 2.507812 -1.066406 2.59375 -1.171875 C 2.6875 -1.273438 2.734375 -1.410156 2.734375 -1.578125 L 2.734375 -1.8125 L 3.953125 -1.8125 L 3.953125 -1.625 C 3.953125 -1.101562 3.800781 -0.6875 3.5 -0.375 C 3.207031 -0.0703125 2.800781 0.078125 2.28125 0.078125 C 1.894531 0.078125 1.566406 0 1.296875 -0.15625 C 1.035156 -0.3125 0.835938 -0.519531 0.703125 -0.78125 C 0.578125 -1.039062 0.515625 -1.335938 0.515625 -1.671875 L 0.515625 -3.4375 L 1.328125 -3.4375 C 1.734375 -3.4375 2.023438 -3.523438 2.203125 -3.703125 C 2.378906 -3.878906 2.46875 -4.140625 2.46875 -4.484375 L 2.46875 -4.90625 L -0.140625 -4.90625 L -0.140625 -5.96875 L 4.421875 -5.96875 L 4.421875 -4.90625 L 3.734375 -4.90625 L 3.734375 -4.484375 C 3.734375 -3.835938 3.582031 -3.332031 3.28125 -2.96875 C 2.988281 -2.601562 2.492188 -2.421875 1.796875 -2.421875 Z M 1.75 -2.421875 "/></g></g></g><g fill="#00bf63" fill-opacity="1"><g transform="translate(93.526911, 29.680567)"><g><path d="M 1.984375 -1.28125 L 1.09375 1.046875 L 0.203125 1.046875 L 0.671875 -1.28125 Z M 1.984375 -1.28125 "/></g></g></g><g fill="#00bf63" fill-opacity="1"><g transform="translate(95.839241, 29.680567)"><g/></g></g><g fill="#00bf63" fill-opacity="1"><g transform="translate(97.547299, 29.680567)"><g><path d="M 5.84375 -4.90625 L 5.0625 -4.90625 L 5.0625 0 L 3.796875 0 L 3.796875 -2.875 L 2.78125 -2.875 C 2.457031 -2.875 2.195312 -2.789062 2 -2.625 C 1.800781 -2.46875 1.703125 -2.242188 1.703125 -1.953125 C 1.703125 -1.648438 1.785156 -1.414062 1.953125 -1.25 C 2.128906 -1.09375 2.382812 -1.015625 2.71875 -1.015625 L 2.875 -1.015625 L 2.875 -0.015625 L 2.53125 -0.015625 C 1.90625 -0.015625 1.394531 -0.175781 1 -0.5 C 0.613281 -0.820312 0.421875 -1.3125 0.421875 -1.96875 C 0.421875 -2.632812 0.632812 -3.132812 1.0625 -3.46875 C 1.488281 -3.800781 2.039062 -3.96875 2.71875 -3.96875 L 3.796875 -3.96875 L 3.796875 -4.90625 L -0.140625 -4.90625 L -0.140625 -5.96875 L 5.84375 -5.96875 Z M 5.84375 -4.90625 "/></g></g></g><g fill="#00bf63" fill-opacity="1"><g transform="translate(103.251579, 29.680567)"><g><path d="M 5.59375 -4.90625 L 4.8125 -4.90625 L 4.8125 0 L 3.546875 0 L 3.546875 -1.75 C 3.253906 -1.445312 2.851562 -1.296875 2.34375 -1.296875 C 1.769531 -1.296875 1.328125 -1.484375 1.015625 -1.859375 C 0.703125 -2.242188 0.546875 -2.75 0.546875 -3.375 L 0.546875 -4.90625 L -0.140625 -4.90625 L -0.140625 -5.96875 L 5.59375 -5.96875 Z M 3.546875 -4.90625 L 1.8125 -4.90625 L 1.8125 -3.375 C 1.8125 -3.0625 1.878906 -2.8125 2.015625 -2.625 C 2.160156 -2.445312 2.378906 -2.359375 2.671875 -2.359375 C 2.953125 -2.359375 3.164062 -2.445312 3.3125 -2.625 C 3.46875 -2.800781 3.546875 -3.023438 3.546875 -3.296875 Z M 3.546875 -4.90625 "/></g></g></g><g fill="#00bf63" fill-opacity="1"><g transform="translate(108.706093, 29.680567)"><g><path d="M 0.65625 0 L 0.65625 -4.90625 L -0.140625 -4.90625 L -0.140625 -5.96875 L 2.703125 -5.96875 L 2.703125 -4.90625 L 1.921875 -4.90625 L 1.921875 0 Z M 0.65625 0 "/></g></g></g><g fill="#00bf63" fill-opacity="1"><g transform="translate(111.27624, 29.680567)"><g><path d="M 4.515625 -8.40625 C 5.046875 -8.40625 5.460938 -8.265625 5.765625 -7.984375 C 6.066406 -7.710938 6.210938 -7.328125 6.203125 -6.828125 L 5.1875 -6.828125 C 5.175781 -6.992188 5.109375 -7.132812 4.984375 -7.25 C 4.867188 -7.375 4.703125 -7.4375 4.484375 -7.4375 C 4.242188 -7.4375 4.0625 -7.359375 3.9375 -7.203125 C 3.8125 -7.046875 3.75 -6.832031 3.75 -6.5625 L 3.75 -5.96875 L 4.84375 -5.96875 L 4.84375 -4.90625 L 3.78125 -4.90625 L 3.78125 -3.421875 L 2.296875 -3.421875 C 2.140625 -3.421875 2.007812 -3.390625 1.90625 -3.328125 C 1.800781 -3.273438 1.75 -3.179688 1.75 -3.046875 C 1.75 -2.921875 1.796875 -2.828125 1.890625 -2.765625 C 1.984375 -2.710938 2.101562 -2.6875 2.25 -2.6875 L 2.609375 -2.6875 C 3.078125 -2.6875 3.46875 -2.570312 3.78125 -2.34375 C 4.101562 -2.113281 4.265625 -1.742188 4.265625 -1.234375 C 4.265625 -0.828125 4.140625 -0.492188 3.890625 -0.234375 C 3.640625 0.015625 3.296875 0.140625 2.859375 0.140625 C 2.617188 0.140625 2.410156 0.0976562 2.234375 0.015625 C 2.066406 -0.0664062 1.941406 -0.164062 1.859375 -0.28125 L 1.859375 0.671875 L 0.65625 0.671875 L 0.65625 -1.390625 L 1.796875 -1.390625 C 1.804688 -1.203125 1.875 -1.054688 2 -0.953125 C 2.125 -0.847656 2.285156 -0.796875 2.484375 -0.796875 C 2.671875 -0.796875 2.8125 -0.835938 2.90625 -0.921875 C 3.007812 -1.015625 3.0625 -1.132812 3.0625 -1.28125 C 3.0625 -1.457031 3 -1.585938 2.875 -1.671875 C 2.75 -1.753906 2.578125 -1.796875 2.359375 -1.796875 C 2.148438 -1.796875 1.984375 -1.800781 1.859375 -1.8125 C 1.484375 -1.820312 1.160156 -1.929688 0.890625 -2.140625 C 0.617188 -2.347656 0.484375 -2.65625 0.484375 -3.0625 C 0.484375 -3.476562 0.617188 -3.789062 0.890625 -4 C 1.171875 -4.21875 1.53125 -4.328125 1.96875 -4.328125 L 2.5625 -4.328125 L 2.5625 -4.90625 L -0.171875 -4.90625 L -0.171875 -5.96875 L 2.625 -5.96875 L 2.625 -6.578125 C 2.625 -6.878906 2.691406 -7.171875 2.828125 -7.453125 C 2.960938 -7.734375 3.171875 -7.960938 3.453125 -8.140625 C 3.734375 -8.316406 4.085938 -8.40625 4.515625 -8.40625 Z M 4.015625 -6.671875 C 4.015625 -6.796875 4.054688 -6.894531 4.140625 -6.96875 C 4.222656 -7.050781 4.328125 -7.09375 4.453125 -7.09375 C 4.566406 -7.09375 4.664062 -7.050781 4.75 -6.96875 C 4.832031 -6.894531 4.875 -6.796875 4.875 -6.671875 C 4.875 -6.554688 4.832031 -6.457031 4.75 -6.375 C 4.664062 -6.289062 4.566406 -6.25 4.453125 -6.25 C 4.328125 -6.25 4.222656 -6.289062 4.140625 -6.375 C 4.054688 -6.457031 4.015625 -6.554688 4.015625 -6.671875 Z M 4.015625 -6.671875 "/></g></g></g><g fill="#00bf63" fill-opacity="1"><g transform="translate(115.933123, 29.680567)"><g><path d="M 4.5625 -4.90625 L 4.5625 -3.71875 C 4.675781 -3.894531 4.832031 -4.03125 5.03125 -4.125 C 5.226562 -4.226562 5.457031 -4.28125 5.71875 -4.28125 C 6.050781 -4.28125 6.34375 -4.195312 6.59375 -4.03125 C 6.84375 -3.875 7.03125 -3.65625 7.15625 -3.375 C 7.289062 -3.09375 7.359375 -2.78125 7.359375 -2.4375 C 7.359375 -2.050781 7.285156 -1.71875 7.140625 -1.4375 C 6.992188 -1.164062 6.796875 -0.957031 6.546875 -0.8125 C 6.296875 -0.664062 6.007812 -0.59375 5.6875 -0.59375 C 5.5 -0.59375 5.316406 -0.613281 5.140625 -0.65625 L 5.140625 -1.65625 C 5.203125 -1.632812 5.269531 -1.625 5.34375 -1.625 C 5.5625 -1.625 5.738281 -1.691406 5.875 -1.828125 C 6.007812 -1.972656 6.078125 -2.164062 6.078125 -2.40625 C 6.078125 -2.632812 6.003906 -2.820312 5.859375 -2.96875 C 5.722656 -3.125 5.546875 -3.203125 5.328125 -3.203125 C 5.078125 -3.203125 4.882812 -3.117188 4.75 -2.953125 C 4.625 -2.785156 4.5625 -2.578125 4.5625 -2.328125 L 4.5625 0 L 3.34375 0 L 3.34375 -1.125 C 3.21875 -0.9375 3.046875 -0.785156 2.828125 -0.671875 C 2.617188 -0.566406 2.375 -0.515625 2.09375 -0.515625 C 1.757812 -0.515625 1.460938 -0.59375 1.203125 -0.75 C 0.953125 -0.90625 0.757812 -1.128906 0.625 -1.421875 C 0.488281 -1.710938 0.421875 -2.039062 0.421875 -2.40625 C 0.421875 -2.96875 0.570312 -3.421875 0.875 -3.765625 C 1.1875 -4.109375 1.609375 -4.28125 2.140625 -4.28125 C 2.421875 -4.28125 2.660156 -4.226562 2.859375 -4.125 C 3.066406 -4.03125 3.226562 -3.894531 3.34375 -3.71875 L 3.34375 -4.90625 L -0.140625 -4.90625 L -0.140625 -5.96875 L 7.921875 -5.96875 L 7.921875 -4.90625 Z M 2.53125 -1.578125 C 2.78125 -1.578125 2.976562 -1.660156 3.125 -1.828125 C 3.269531 -1.992188 3.34375 -2.1875 3.34375 -2.40625 C 3.34375 -2.625 3.269531 -2.8125 3.125 -2.96875 C 2.976562 -3.125 2.78125 -3.203125 2.53125 -3.203125 C 2.289062 -3.203125 2.09375 -3.125 1.9375 -2.96875 C 1.78125 -2.820312 1.703125 -2.628906 1.703125 -2.390625 C 1.703125 -2.148438 1.773438 -1.953125 1.921875 -1.796875 C 2.078125 -1.648438 2.28125 -1.578125 2.53125 -1.578125 Z M 2.53125 -1.578125 "/></g></g></g><g fill="#00bf63" fill-opacity="1"><g transform="translate(123.708024, 29.680567)"><g><path d="M 2.703125 -5.96875 L 2.703125 -4.90625 L 1.921875 -4.90625 L 1.921875 0 L 0.65625 0 L 0.65625 -4.90625 L -0.140625 -4.90625 L -0.140625 -5.96875 L 0.703125 -5.96875 C 0.484375 -6.289062 0.304688 -6.523438 0.171875 -6.671875 C 0.046875 -6.816406 -0.0820312 -6.914062 -0.21875 -6.96875 C -0.363281 -7.019531 -0.5625 -7.046875 -0.8125 -7.046875 L -1.234375 -7.046875 L -1.234375 -8.0625 L -0.84375 -8.0625 C -0.382812 -8.050781 -0.0234375 -8 0.234375 -7.90625 C 0.492188 -7.820312 0.742188 -7.632812 0.984375 -7.34375 C 1.234375 -7.050781 1.535156 -6.59375 1.890625 -5.96875 Z M 2.703125 -5.96875 "/></g></g></g><g fill="#00bf63" fill-opacity="1"><g transform="translate(126.286229, 29.680567)"><g/></g></g><g fill="#00bf63" fill-opacity="1"><g transform="translate(127.994287, 29.680567)"><g><path d="M 5.84375 -4.90625 L 5.0625 -4.90625 L 5.0625 0 L 3.796875 0 L 3.796875 -2.875 L 2.78125 -2.875 C 2.457031 -2.875 2.195312 -2.789062 2 -2.625 C 1.800781 -2.46875 1.703125 -2.242188 1.703125 -1.953125 C 1.703125 -1.648438 1.785156 -1.414062 1.953125 -1.25 C 2.128906 -1.09375 2.382812 -1.015625 2.71875 -1.015625 L 2.875 -1.015625 L 2.875 -0.015625 L 2.53125 -0.015625 C 1.90625 -0.015625 1.394531 -0.175781 1 -0.5 C 0.613281 -0.820312 0.421875 -1.3125 0.421875 -1.96875 C 0.421875 -2.632812 0.632812 -3.132812 1.0625 -3.46875 C 1.488281 -3.800781 2.039062 -3.96875 2.71875 -3.96875 L 3.796875 -3.96875 L 3.796875 -4.90625 L -0.140625 -4.90625 L -0.140625 -5.96875 L 5.84375 -5.96875 Z M 5.84375 -4.90625 "/></g></g></g><g fill="#00bf63" fill-opacity="1"><g transform="translate(133.698567, 29.680567)"><g><path d="M 0.65625 0 L 0.65625 -4.90625 L -0.140625 -4.90625 L -0.140625 -5.96875 L 2.703125 -5.96875 L 2.703125 -4.90625 L 1.921875 -4.90625 L 1.921875 0 Z M 0.65625 0 "/></g></g></g><g fill="#00bf63" fill-opacity="1"><g transform="translate(136.268714, 29.680567)"><g><path d="M 4.59375 -8.359375 C 5.957031 -8.359375 6.960938 -8.128906 7.609375 -7.671875 C 8.265625 -7.210938 8.59375 -6.578125 8.59375 -5.765625 L 8.59375 -5.625 L 7.359375 -5.625 L 7.359375 -5.734375 C 7.359375 -6.265625 7.128906 -6.660156 6.671875 -6.921875 C 6.210938 -7.191406 5.507812 -7.328125 4.5625 -7.328125 C 3.664062 -7.328125 3.007812 -7.21875 2.59375 -7 C 2.175781 -6.78125 1.953125 -6.4375 1.921875 -5.96875 L 2.703125 -5.96875 L 2.703125 -4.90625 L 1.921875 -4.90625 L 1.921875 0 L 0.65625 0 L 0.65625 -4.90625 L -0.140625 -4.90625 L -0.140625 -5.96875 L 0.65625 -5.96875 C 0.726562 -7.5625 2.039062 -8.359375 4.59375 -8.359375 Z M 4.59375 -8.359375 "/></g></g></g><g fill="#00bf63" fill-opacity="1"><g transform="translate(138.838856, 29.680567)"><g><path d="M 5.9375 -4.90625 L 5.9375 -4.0625 C 6.25 -3.914062 6.492188 -3.691406 6.671875 -3.390625 C 6.847656 -3.085938 6.9375 -2.71875 6.9375 -2.28125 C 6.9375 -1.882812 6.851562 -1.53125 6.6875 -1.21875 C 6.53125 -0.914062 6.296875 -0.675781 5.984375 -0.5 C 5.671875 -0.320312 5.296875 -0.234375 4.859375 -0.234375 C 4.742188 -0.234375 4.648438 -0.238281 4.578125 -0.25 L 4.578125 -1.359375 L 4.796875 -1.34375 C 5.054688 -1.34375 5.265625 -1.425781 5.421875 -1.59375 C 5.578125 -1.757812 5.65625 -1.984375 5.65625 -2.265625 C 5.65625 -2.515625 5.59375 -2.71875 5.46875 -2.875 C 5.34375 -3.03125 5.164062 -3.109375 4.9375 -3.109375 C 4.6875 -3.109375 4.5 -3.019531 4.375 -2.84375 C 4.257812 -2.664062 4.203125 -2.4375 4.203125 -2.15625 L 4.203125 -1.96875 L 3.15625 -1.96875 L 3.15625 -2.15625 C 3.15625 -2.4375 3.097656 -2.664062 2.984375 -2.84375 C 2.867188 -3.019531 2.691406 -3.109375 2.453125 -3.109375 C 2.210938 -3.109375 2.023438 -3.03125 1.890625 -2.875 C 1.765625 -2.726562 1.703125 -2.523438 1.703125 -2.265625 C 1.703125 -1.984375 1.78125 -1.757812 1.9375 -1.59375 C 2.09375 -1.425781 2.304688 -1.34375 2.578125 -1.34375 L 2.796875 -1.359375 L 2.796875 -0.25 C 2.710938 -0.238281 2.617188 -0.234375 2.515625 -0.234375 C 2.078125 -0.234375 1.695312 -0.320312 1.375 -0.5 C 1.0625 -0.675781 0.820312 -0.914062 0.65625 -1.21875 C 0.5 -1.53125 0.421875 -1.882812 0.421875 -2.28125 C 0.421875 -2.707031 0.503906 -3.066406 0.671875 -3.359375 C 0.835938 -3.648438 1.054688 -3.863281 1.328125 -4 C 1.609375 -4.144531 1.921875 -4.21875 2.265625 -4.21875 C 2.628906 -4.21875 2.921875 -4.132812 3.140625 -3.96875 C 3.367188 -3.800781 3.546875 -3.582031 3.671875 -3.3125 L 3.6875 -3.3125 C 3.894531 -3.78125 4.234375 -4.066406 4.703125 -4.171875 L 4.703125 -4.90625 L -0.140625 -4.90625 L -0.140625 -5.96875 L 7.5 -5.96875 L 7.5 -4.90625 Z M 5.9375 -4.90625 "/></g></g></g><g fill="#00bf63" fill-opacity="1"><g transform="translate(146.202861, 29.680567)"><g><path d="M 4.5625 -4.90625 L 4.5625 -3.71875 C 4.675781 -3.894531 4.832031 -4.03125 5.03125 -4.125 C 5.226562 -4.226562 5.457031 -4.28125 5.71875 -4.28125 C 6.050781 -4.28125 6.34375 -4.195312 6.59375 -4.03125 C 6.84375 -3.875 7.03125 -3.65625 7.15625 -3.375 C 7.289062 -3.09375 7.359375 -2.78125 7.359375 -2.4375 C 7.359375 -2.050781 7.285156 -1.71875 7.140625 -1.4375 C 6.992188 -1.164062 6.796875 -0.957031 6.546875 -0.8125 C 6.296875 -0.664062 6.007812 -0.59375 5.6875 -0.59375 C 5.5 -0.59375 5.316406 -0.613281 5.140625 -0.65625 L 5.140625 -1.65625 C 5.203125 -1.632812 5.269531 -1.625 5.34375 -1.625 C 5.5625 -1.625 5.738281 -1.691406 5.875 -1.828125 C 6.007812 -1.972656 6.078125 -2.164062 6.078125 -2.40625 C 6.078125 -2.632812 6.003906 -2.820312 5.859375 -2.96875 C 5.722656 -3.125 5.546875 -3.203125 5.328125 -3.203125 C 5.078125 -3.203125 4.882812 -3.117188 4.75 -2.953125 C 4.625 -2.785156 4.5625 -2.578125 4.5625 -2.328125 L 4.5625 0 L 3.34375 0 L 3.34375 -1.125 C 3.21875 -0.9375 3.046875 -0.785156 2.828125 -0.671875 C 2.617188 -0.566406 2.375 -0.515625 2.09375 -0.515625 C 1.757812 -0.515625 1.460938 -0.59375 1.203125 -0.75 C 0.953125 -0.90625 0.757812 -1.128906 0.625 -1.421875 C 0.488281 -1.710938 0.421875 -2.039062 0.421875 -2.40625 C 0.421875 -2.96875 0.570312 -3.421875 0.875 -3.765625 C 1.1875 -4.109375 1.609375 -4.28125 2.140625 -4.28125 C 2.421875 -4.28125 2.660156 -4.226562 2.859375 -4.125 C 3.066406 -4.03125 3.226562 -3.894531 3.34375 -3.71875 L 3.34375 -4.90625 L -0.140625 -4.90625 L -0.140625 -5.96875 L 7.921875 -5.96875 L 7.921875 -4.90625 Z M 2.53125 -1.578125 C 2.78125 -1.578125 2.976562 -1.660156 3.125 -1.828125 C 3.269531 -1.992188 3.34375 -2.1875 3.34375 -2.40625 C 3.34375 -2.625 3.269531 -2.8125 3.125 -2.96875 C 2.976562 -3.125 2.78125 -3.203125 2.53125 -3.203125 C 2.289062 -3.203125 2.09375 -3.125 1.9375 -2.96875 C 1.78125 -2.820312 1.703125 -2.628906 1.703125 -2.390625 C 1.703125 -2.148438 1.773438 -1.953125 1.921875 -1.796875 C 2.078125 -1.648438 2.28125 -1.578125 2.53125 -1.578125 Z M 2.53125 -1.578125 "/></g></g></g><g fill="#00bf63" fill-opacity="1"><g transform="translate(153.977762, 29.680567)"><g><path d="M 0.65625 0 L 0.65625 -4.90625 L -0.140625 -4.90625 L -0.140625 -5.96875 L 2.703125 -5.96875 L 2.703125 -4.90625 L 1.921875 -4.90625 L 1.921875 0 Z M 0.65625 0 "/></g></g></g></svg>