<svg xmlns="http://www.w3.org/2000/svg" xmlns:xlink="http://www.w3.org/1999/xlink" width="256" zoomAndPan="magnify" viewBox="0 0 192 192.749996" height="257" preserveAspectRatio="xMidYMid meet" version="1.0"><defs><clipPath id="69d8f4b1e4"><path d="M 7.679688 16.40625 L 180.890625 16.40625 L 180.890625 189.617188 L 7.679688 189.617188 Z M 7.679688 16.40625 " clip-rule="nonzero"/></clipPath><clipPath id="4b77ef4955"><path d="M 94.285156 16.40625 C 46.453125 16.40625 7.679688 55.179688 7.679688 103.011719 C 7.679688 150.84375 46.453125 189.617188 94.285156 189.617188 C 142.113281 189.617188 180.890625 150.84375 180.890625 103.011719 C 180.890625 55.179688 142.113281 16.40625 94.285156 16.40625 Z M 94.285156 16.40625 " clip-rule="nonzero"/></clipPath><clipPath id="24b7912bd1"><path d="M 35 2.246094 L 154 2.246094 L 154 163 L 35 163 Z M 35 2.246094 " clip-rule="nonzero"/></clipPath><clipPath id="3028c1c1ee"><path d="M 49.191406 163.0625 L 52.1875 163.0625 L 52.1875 166.058594 L 49.191406 166.058594 Z M 49.191406 163.0625 " clip-rule="nonzero"/></clipPath></defs><g clip-path="url(#69d8f4b1e4)"><g clip-path="url(#4b77ef4955)"><path fill="#ffffff" d="M 7.679688 16.40625 L 180.890625 16.40625 L 180.890625 189.617188 L 7.679688 189.617188 Z M 7.679688 16.40625 " fill-opacity="1" fill-rule="nonzero"/></g></g><g clip-path="url(#24b7912bd1)"><path fill="#004aad" d="M 52.652344 145.183594 C 55.714844 145.878906 58.8125 146.238281 61.949219 146.265625 C 63.355469 146.265625 64.757812 146.195312 66.144531 146.085938 C 61.351562 142.847656 57.242188 138.902344 53.816406 134.242188 L 52.8125 122.929688 L 51.492188 122.929688 C 50.992188 122.929688 50.507812 122.835938 50.046875 122.644531 C 49.582031 122.449219 49.175781 122.179688 48.820312 121.824219 C 48.46875 121.46875 48.195312 121.0625 48.003906 120.597656 C 47.8125 120.136719 47.714844 119.652344 47.714844 119.152344 L 47.714844 99.695312 C 47.714844 99.214844 47.761719 98.738281 47.855469 98.265625 C 47.949219 97.792969 48.085938 97.335938 48.269531 96.890625 C 48.453125 96.445312 48.679688 96.023438 48.949219 95.621094 C 49.214844 95.222656 49.519531 94.851562 49.859375 94.511719 C 50.199219 94.171875 50.570312 93.867188 50.96875 93.601562 C 51.371094 93.332031 51.792969 93.105469 52.238281 92.921875 C 52.683594 92.738281 53.140625 92.601562 53.613281 92.507812 C 54.085938 92.414062 54.5625 92.367188 55.042969 92.367188 L 58.394531 92.367188 C 58.710938 92.371094 59 92.277344 59.257812 92.089844 C 59.511719 91.902344 59.6875 91.65625 59.78125 91.351562 C 59.875 91.046875 59.871094 90.746094 59.765625 90.445312 C 59.65625 90.144531 59.472656 89.90625 59.207031 89.730469 C 58.566406 89.320312 57.988281 88.839844 57.46875 88.289062 C 56.949219 87.734375 56.507812 87.125 56.144531 86.460938 C 55.777344 85.792969 55.5 85.09375 55.3125 84.359375 C 55.125 83.625 55.03125 82.875 55.03125 82.117188 L 55.03125 80.589844 C 55.03125 79.960938 55.09375 79.335938 55.226562 78.71875 C 55.355469 78.101562 55.546875 77.507812 55.804688 76.929688 C 56.058594 76.355469 56.371094 75.808594 56.742188 75.300781 C 57.109375 74.789062 57.527344 74.320312 57.996094 73.898438 C 58.460938 73.472656 58.964844 73.105469 59.511719 72.785156 C 60.054688 72.46875 60.628906 72.210938 61.226562 72.015625 C 61.824219 71.816406 62.4375 71.683594 63.0625 71.613281 C 63.6875 71.542969 64.316406 71.539062 64.941406 71.601562 C 69.636719 72.046875 73.078125 76.25 73.078125 80.972656 L 73.078125 82.136719 C 73.078125 82.894531 72.984375 83.640625 72.796875 84.375 C 72.605469 85.109375 72.332031 85.8125 71.964844 86.476562 C 71.601562 87.140625 71.15625 87.75 70.640625 88.304688 C 70.121094 88.859375 69.539062 89.339844 68.898438 89.746094 C 68.640625 89.925781 68.457031 90.164062 68.355469 90.464844 C 68.25 90.765625 68.246094 91.066406 68.339844 91.367188 C 68.433594 91.667969 68.609375 91.914062 68.863281 92.101562 C 69.117188 92.289062 69.402344 92.382812 69.71875 92.382812 L 73.070312 92.382812 C 74.246094 92.386719 75.355469 92.65625 76.398438 93.191406 C 77.445312 93.730469 78.308594 94.476562 78.992188 95.429688 C 78.339844 95.632812 77.703125 95.886719 77.089844 96.191406 C 76.476562 96.496094 75.890625 96.84375 75.332031 97.242188 C 74.773438 97.640625 74.25 98.078125 73.761719 98.558594 C 73.273438 99.039062 72.828125 99.554688 72.417969 100.105469 C 72.011719 100.65625 71.652344 101.234375 71.339844 101.84375 C 71.023438 102.453125 70.757812 103.082031 70.542969 103.734375 C 70.328125 104.382812 70.167969 105.046875 70.058594 105.722656 C 69.949219 106.398438 69.894531 107.078125 69.894531 107.765625 L 69.894531 134.550781 C 69.894531 135.167969 69.984375 135.769531 70.164062 136.355469 C 70.34375 136.945312 70.601562 137.496094 70.941406 138.007812 C 71.285156 138.519531 71.691406 138.972656 72.164062 139.363281 C 72.640625 139.757812 73.160156 140.070312 73.726562 140.308594 L 73.296875 145.074219 C 75.964844 144.503906 78.574219 143.730469 81.121094 142.75 L 80.007812 137.121094 L 76.140625 137.121094 C 75.796875 137.121094 75.472656 137.054688 75.15625 136.925781 C 74.839844 136.796875 74.5625 136.609375 74.320312 136.367188 C 74.082031 136.128906 73.894531 135.851562 73.765625 135.535156 C 73.636719 135.21875 73.570312 134.890625 73.570312 134.550781 L 73.570312 107.746094 C 73.570312 107.140625 73.632812 106.539062 73.75 105.941406 C 73.867188 105.347656 74.042969 104.769531 74.277344 104.207031 C 74.511719 103.644531 74.796875 103.113281 75.132812 102.609375 C 75.472656 102.101562 75.855469 101.636719 76.285156 101.207031 C 76.714844 100.777344 77.183594 100.394531 77.6875 100.054688 C 78.191406 99.71875 78.726562 99.433594 79.285156 99.203125 C 79.847656 98.96875 80.425781 98.792969 81.023438 98.675781 C 81.617188 98.554688 82.21875 98.496094 82.828125 98.496094 L 87.0625 98.496094 C 87.464844 98.5 87.828125 98.382812 88.152344 98.144531 C 88.476562 97.90625 88.699219 97.597656 88.816406 97.214844 C 88.9375 96.828125 88.929688 96.449219 88.796875 96.070312 C 88.664062 95.691406 88.429688 95.386719 88.097656 95.160156 C 87.289062 94.648438 86.554688 94.042969 85.898438 93.339844 C 85.242188 92.640625 84.683594 91.871094 84.222656 91.03125 C 83.761719 90.191406 83.410156 89.304688 83.171875 88.378906 C 82.933594 87.449219 82.816406 86.503906 82.816406 85.546875 L 82.816406 83.59375 C 82.816406 82.84375 82.890625 82.101562 83.035156 81.367188 C 83.179688 80.636719 83.398438 79.921875 83.683594 79.230469 C 83.972656 78.539062 84.324219 77.882812 84.738281 77.257812 C 85.15625 76.636719 85.628906 76.0625 86.15625 75.53125 C 86.6875 75.003906 87.261719 74.53125 87.886719 74.117188 C 88.507812 73.699219 89.164062 73.347656 89.859375 73.0625 C 90.550781 72.777344 91.261719 72.5625 91.996094 72.417969 C 92.730469 72.269531 93.472656 72.199219 94.222656 72.199219 C 94.28125 72.199219 94.339844 72.199219 94.394531 72.199219 C 94.453125 72.199219 94.511719 72.199219 94.570312 72.199219 C 95.320312 72.199219 96.0625 72.269531 96.796875 72.414062 C 97.53125 72.558594 98.242188 72.777344 98.9375 73.0625 C 99.628906 73.347656 100.285156 73.699219 100.910156 74.113281 C 101.53125 74.527344 102.109375 75 102.636719 75.53125 C 103.167969 76.058594 103.640625 76.636719 104.058594 77.257812 C 104.476562 77.878906 104.828125 78.539062 105.113281 79.230469 C 105.398438 79.921875 105.617188 80.632812 105.761719 81.367188 C 105.910156 82.101562 105.980469 82.84375 105.980469 83.59375 L 105.980469 85.527344 C 105.984375 86.488281 105.863281 87.429688 105.628906 88.359375 C 105.390625 89.289062 105.039062 90.171875 104.578125 91.015625 C 104.117188 91.855469 103.558594 92.625 102.902344 93.324219 C 102.246094 94.023438 101.515625 94.628906 100.707031 95.144531 C 100.375 95.371094 100.140625 95.671875 100.007812 96.050781 C 99.875 96.429688 99.867188 96.808594 99.984375 97.191406 C 100.105469 97.578125 100.324219 97.886719 100.648438 98.125 C 100.972656 98.363281 101.332031 98.480469 101.734375 98.480469 L 105.976562 98.480469 C 106.582031 98.480469 107.183594 98.539062 107.78125 98.65625 C 108.378906 98.777344 108.957031 98.953125 109.515625 99.183594 C 110.078125 99.417969 110.613281 99.699219 111.117188 100.039062 C 111.621094 100.375 112.089844 100.757812 112.519531 101.1875 C 112.949219 101.617188 113.332031 102.085938 113.671875 102.589844 C 114.007812 103.09375 114.292969 103.628906 114.527344 104.191406 C 114.757812 104.75 114.933594 105.328125 115.054688 105.925781 C 115.171875 106.519531 115.230469 107.121094 115.230469 107.730469 L 115.230469 134.550781 C 115.230469 134.890625 115.167969 135.21875 115.035156 135.53125 C 114.90625 135.847656 114.722656 136.125 114.480469 136.363281 C 114.238281 136.605469 113.960938 136.789062 113.648438 136.921875 C 113.332031 137.050781 113.003906 137.113281 112.664062 137.113281 L 108.792969 137.113281 L 107.011719 146.101562 C 107.644531 149.691406 106.152344 153.761719 103.058594 156.480469 C 100.441406 158.8125 97.585938 160.800781 94.488281 162.445312 C 100.09375 162.433594 105.585938 161.636719 110.960938 160.046875 C 113.339844 158.578125 115.550781 156.890625 117.589844 154.980469 C 119.445312 153.167969 121.515625 151.644531 123.796875 150.414062 C 125.429688 149.539062 127.171875 149.085938 129.027344 149.054688 C 129.78125 149.054688 130.523438 149.152344 131.25 149.339844 C 132.703125 148.171875 134.09375 146.9375 135.425781 145.636719 C 136.761719 144.335938 138.03125 142.976562 139.234375 141.554688 C 140.4375 140.132812 141.570312 138.660156 142.636719 137.128906 C 143.699219 135.601562 144.691406 134.027344 145.605469 132.40625 C 146.519531 130.78125 147.355469 129.121094 148.109375 127.417969 C 148.867188 125.714844 149.542969 123.984375 150.132812 122.21875 C 150.726562 120.453125 151.234375 118.660156 151.65625 116.847656 C 152.078125 115.035156 152.414062 113.203125 152.664062 111.359375 C 152.910156 109.511719 153.070312 107.660156 153.144531 105.796875 C 153.214844 103.9375 153.199219 102.078125 153.097656 100.21875 C 152.992188 98.359375 152.800781 96.507812 152.519531 94.667969 C 152.242188 92.824219 151.875 91 151.421875 89.195312 C 150.96875 87.386719 150.429688 85.605469 149.808594 83.851562 C 149.1875 82.097656 148.484375 80.375 147.699219 78.683594 C 146.914062 76.996094 146.050781 75.347656 145.105469 73.742188 C 144.164062 72.136719 143.148438 70.578125 142.058594 69.066406 L 97.25 3.828125 C 97.082031 3.582031 96.886719 3.363281 96.667969 3.167969 C 96.445312 2.96875 96.203125 2.804688 95.941406 2.664062 C 95.679688 2.527344 95.40625 2.421875 95.121094 2.351562 C 94.832031 2.28125 94.539062 2.246094 94.246094 2.246094 C 93.949219 2.246094 93.65625 2.28125 93.371094 2.351562 C 93.082031 2.421875 92.808594 2.527344 92.546875 2.664062 C 92.285156 2.804688 92.042969 2.96875 91.824219 3.167969 C 91.601562 3.363281 91.410156 3.582031 91.242188 3.828125 L 46.429688 69.066406 C 45.414062 70.472656 44.464844 71.917969 43.578125 73.40625 C 42.691406 74.894531 41.871094 76.421875 41.117188 77.980469 C 40.367188 79.542969 39.683594 81.136719 39.070312 82.757812 C 38.460938 84.378906 37.921875 86.023438 37.457031 87.691406 C 36.988281 89.363281 36.597656 91.050781 36.28125 92.753906 C 35.964844 94.457031 35.726562 96.171875 35.558594 97.898438 C 35.394531 99.621094 35.304688 101.351562 35.292969 103.085938 C 35.28125 104.816406 35.347656 106.546875 35.488281 108.273438 C 35.628906 110.003906 35.847656 111.71875 36.140625 113.429688 C 36.433594 115.136719 36.800781 116.828125 37.246094 118.503906 C 37.6875 120.179688 38.203125 121.832031 38.792969 123.460938 C 39.382812 125.089844 40.042969 126.691406 40.773438 128.261719 C 41.503906 129.835938 42.300781 131.371094 43.167969 132.871094 C 44.035156 134.371094 44.96875 135.832031 45.964844 137.25 C 46.960938 138.667969 48.015625 140.039062 49.132812 141.367188 C 50.25 142.691406 51.425781 143.964844 52.652344 145.183594 Z M 115.71875 80.589844 C 115.71875 79.960938 115.785156 79.335938 115.914062 78.71875 C 116.046875 78.101562 116.238281 77.507812 116.492188 76.929688 C 116.75 76.355469 117.0625 75.808594 117.429688 75.300781 C 117.800781 74.789062 118.21875 74.320312 118.683594 73.898438 C 119.152344 73.472656 119.65625 73.105469 120.203125 72.785156 C 120.746094 72.46875 121.316406 72.210938 121.914062 72.015625 C 122.515625 71.816406 123.125 71.683594 123.753906 71.613281 C 124.378906 71.542969 125.007812 71.539062 125.632812 71.601562 C 130.328125 72.046875 133.769531 76.25 133.769531 80.972656 L 133.769531 82.136719 C 133.769531 82.894531 133.675781 83.640625 133.484375 84.375 C 133.296875 85.109375 133.019531 85.8125 132.65625 86.476562 C 132.289062 87.140625 131.847656 87.75 131.328125 88.304688 C 130.808594 88.859375 130.230469 89.339844 129.589844 89.746094 C 129.324219 89.925781 129.140625 90.164062 129.035156 90.460938 C 128.929688 90.761719 128.921875 91.0625 129.015625 91.367188 C 129.109375 91.671875 129.285156 91.917969 129.542969 92.105469 C 129.796875 92.292969 130.085938 92.386719 130.402344 92.382812 L 133.757812 92.382812 C 134.238281 92.382812 134.714844 92.429688 135.183594 92.527344 C 135.65625 92.621094 136.117188 92.757812 136.558594 92.941406 C 137.003906 93.125 137.425781 93.351562 137.828125 93.621094 C 138.226562 93.886719 138.597656 94.191406 138.9375 94.53125 C 139.277344 94.871094 139.582031 95.242188 139.847656 95.640625 C 140.117188 96.039062 140.339844 96.464844 140.523438 96.90625 C 140.710938 97.351562 140.847656 97.808594 140.941406 98.28125 C 141.035156 98.753906 141.082031 99.230469 141.082031 99.710938 L 141.082031 119.152344 C 141.082031 119.652344 140.988281 120.136719 140.796875 120.597656 C 140.605469 121.0625 140.332031 121.46875 139.976562 121.824219 C 139.621094 122.179688 139.214844 122.449219 138.75 122.644531 C 138.289062 122.835938 137.808594 122.929688 137.304688 122.929688 L 135.988281 122.929688 L 135.015625 133.679688 C 132.566406 137.132812 129.726562 140.226562 126.496094 142.960938 C 123.265625 145.695312 119.746094 147.988281 115.933594 149.832031 L 115.074219 140.320312 C 115.644531 140.082031 116.164062 139.769531 116.636719 139.375 C 117.113281 138.984375 117.519531 138.53125 117.859375 138.019531 C 118.203125 137.507812 118.460938 136.957031 118.640625 136.367188 C 118.820312 135.78125 118.910156 135.179688 118.910156 134.5625 L 118.910156 107.746094 C 118.910156 107.0625 118.855469 106.382812 118.746094 105.707031 C 118.636719 105.03125 118.472656 104.367188 118.257812 103.714844 C 118.042969 103.066406 117.78125 102.433594 117.464844 101.828125 C 117.152344 101.21875 116.789062 100.636719 116.382812 100.085938 C 115.976562 99.535156 115.53125 99.019531 115.042969 98.539062 C 114.550781 98.058594 114.03125 97.621094 113.472656 97.222656 C 112.914062 96.828125 112.328125 96.476562 111.714844 96.171875 C 111.097656 95.867188 110.464844 95.613281 109.8125 95.410156 C 110.496094 94.457031 111.359375 93.710938 112.40625 93.175781 C 113.449219 92.640625 114.558594 92.371094 115.730469 92.367188 L 119.085938 92.367188 C 119.402344 92.371094 119.691406 92.277344 119.945312 92.089844 C 120.203125 91.902344 120.378906 91.65625 120.472656 91.351562 C 120.566406 91.046875 120.558594 90.746094 120.453125 90.445312 C 120.347656 90.144531 120.164062 89.90625 119.898438 89.730469 C 119.257812 89.320312 118.679688 88.839844 118.160156 88.289062 C 117.640625 87.734375 117.199219 87.125 116.832031 86.460938 C 116.46875 85.792969 116.191406 85.09375 116.003906 84.359375 C 115.8125 83.625 115.71875 82.875 115.71875 82.117188 Z M 75.773438 40.496094 L 87.359375 40.496094 L 87.359375 28.90625 L 101.128906 28.90625 L 101.128906 40.492188 L 112.710938 40.492188 L 112.710938 54.257812 L 101.128906 54.257812 L 101.128906 65.84375 L 87.359375 65.84375 L 87.359375 54.257812 L 75.773438 54.257812 Z M 75.773438 40.496094 " fill-opacity="1" fill-rule="nonzero"/></g><path fill="#00bf63" d="M 106.238281 16.925781 L 125.800781 45.394531 C 126.96875 46.035156 128.117188 46.707031 129.242188 47.417969 C 130.371094 48.125 131.472656 48.867188 132.554688 49.644531 C 133.636719 50.421875 134.695312 51.230469 135.726562 52.070312 C 136.757812 52.910156 137.765625 53.78125 138.742188 54.683594 C 139.722656 55.585938 140.675781 56.515625 141.597656 57.472656 C 142.519531 58.433594 143.414062 59.421875 144.277344 60.433594 C 145.136719 61.449219 145.96875 62.488281 146.769531 63.550781 C 147.570312 64.613281 148.335938 65.703125 149.070312 66.8125 C 149.800781 67.925781 150.5 69.058594 151.167969 70.210938 C 151.832031 71.363281 152.460938 72.535156 153.054688 73.726562 C 153.644531 74.917969 154.203125 76.128906 154.722656 77.351562 C 155.242188 78.578125 155.722656 79.820312 156.167969 81.074219 C 156.613281 82.328125 157.019531 83.597656 157.386719 84.875 C 157.753906 86.15625 158.082031 87.445312 158.371094 88.742188 C 158.660156 90.042969 158.90625 91.351562 159.117188 92.664062 C 159.328125 93.980469 159.496094 95.300781 159.625 96.625 C 159.753906 97.949219 159.84375 99.277344 159.890625 100.605469 C 159.9375 101.9375 159.945312 103.269531 159.914062 104.597656 C 159.882812 105.929688 159.808594 107.257812 159.695312 108.585938 C 159.582031 109.910156 159.429688 111.230469 159.234375 112.550781 C 159.039062 113.867188 158.808594 115.175781 158.535156 116.480469 C 158.261719 117.78125 157.949219 119.074219 157.59375 120.359375 C 157.242188 121.644531 156.851562 122.914062 156.421875 124.175781 C 155.992188 125.433594 155.527344 126.679688 155.019531 127.910156 C 154.515625 129.144531 153.972656 130.359375 153.394531 131.558594 C 152.816406 132.753906 152.199219 133.933594 151.550781 135.097656 C 150.898438 136.257812 150.210938 137.398438 149.492188 138.515625 C 148.773438 139.636719 148.019531 140.734375 147.230469 141.808594 C 146.445312 142.878906 145.625 143.929688 144.773438 144.953125 C 143.921875 145.976562 143.042969 146.972656 142.132812 147.945312 C 141.21875 148.914062 140.28125 149.855469 139.3125 150.769531 C 138.34375 151.683594 137.347656 152.566406 136.324219 153.417969 C 136.382812 153.523438 136.453125 153.621094 136.503906 153.730469 C 136.636719 154.027344 136.761719 154.3125 136.863281 154.632812 C 137.453125 154.53125 138.050781 154.480469 138.648438 154.480469 C 139.359375 154.460938 140.0625 154.542969 140.753906 154.71875 C 141.445312 154.894531 142.097656 155.164062 142.714844 155.523438 C 143.328125 155.882812 143.882812 156.320312 144.378906 156.832031 C 144.871094 157.347656 145.285156 157.917969 145.621094 158.546875 C 145.925781 159.132812 146.152344 159.746094 146.308594 160.382812 C 147.148438 160.492188 147.953125 160.722656 148.722656 161.085938 C 149.488281 161.449219 150.179688 161.921875 150.796875 162.503906 C 151.414062 163.085938 151.925781 163.75 152.332031 164.492188 C 152.738281 165.238281 153.019531 166.027344 153.175781 166.863281 C 154.675781 165.476562 156.125 164.039062 157.527344 162.546875 C 158.925781 161.058594 160.273438 159.523438 161.5625 157.9375 C 162.855469 156.351562 164.089844 154.726562 165.265625 153.054688 C 166.445312 151.382812 167.558594 149.671875 168.617188 147.921875 C 169.671875 146.171875 170.664062 144.386719 171.59375 142.566406 C 172.523438 140.746094 173.390625 138.894531 174.1875 137.011719 C 174.988281 135.132812 175.71875 133.222656 176.386719 131.292969 C 177.050781 129.359375 177.644531 127.402344 178.171875 125.429688 C 178.699219 123.453125 179.15625 121.464844 179.542969 119.457031 C 179.929688 117.449219 180.246094 115.429688 180.488281 113.402344 C 180.734375 111.371094 180.90625 109.335938 181.003906 107.292969 C 181.105469 105.25 181.132812 103.210938 181.089844 101.164062 C 181.046875 99.121094 180.929688 97.082031 180.742188 95.046875 C 180.554688 93.011719 180.296875 90.984375 179.964844 88.96875 C 179.636719 86.949219 179.234375 84.949219 178.761719 82.957031 C 178.289062 80.96875 177.75 79 177.136719 77.050781 C 176.527344 75.097656 175.847656 73.171875 175.101562 71.269531 C 174.355469 69.367188 173.539062 67.492188 172.660156 65.648438 C 171.78125 63.800781 170.839844 61.988281 169.832031 60.210938 C 168.824219 58.429688 167.757812 56.691406 166.625 54.988281 C 165.496094 53.285156 164.308594 51.621094 163.0625 50.003906 C 161.8125 48.382812 160.511719 46.808594 159.152344 45.28125 C 157.792969 43.753906 156.382812 42.277344 154.921875 40.847656 C 153.460938 39.417969 151.949219 38.042969 150.390625 36.722656 C 148.828125 35.402344 147.226562 34.136719 145.578125 32.929688 C 143.925781 31.71875 142.238281 30.570312 140.507812 29.480469 C 138.777344 28.394531 137.011719 27.367188 135.210938 26.402344 C 133.40625 25.4375 131.574219 24.535156 129.707031 23.703125 C 127.84375 22.867188 125.949219 22.097656 124.03125 21.398438 C 122.109375 20.695312 120.167969 20.0625 118.203125 19.496094 C 116.238281 18.933594 114.257812 18.4375 112.257812 18.015625 C 110.257812 17.589844 108.246094 17.234375 106.21875 16.953125 Z M 106.238281 16.925781 " fill-opacity="1" fill-rule="nonzero"/><path fill="#00bf63" d="M 40.929688 141.320312 C 40.253906 140.378906 39.601562 139.421875 38.976562 138.449219 C 38.351562 137.472656 37.75 136.484375 37.179688 135.476562 C 36.605469 134.46875 36.058594 133.449219 35.539062 132.414062 C 35.019531 131.378906 34.53125 130.328125 34.066406 129.269531 C 33.601562 128.207031 33.167969 127.132812 32.761719 126.050781 C 32.351562 124.964844 31.976562 123.871094 31.625 122.765625 C 31.277344 121.664062 30.957031 120.550781 30.667969 119.429688 C 30.378906 118.308594 30.117188 117.179688 29.886719 116.042969 C 29.65625 114.910156 29.457031 113.769531 29.289062 112.625 C 29.117188 111.476562 28.976562 110.328125 28.867188 109.175781 C 28.757812 108.023438 28.679688 106.867188 28.632812 105.710938 C 28.585938 104.554688 28.566406 103.394531 28.582031 102.238281 C 28.59375 101.078125 28.636719 99.921875 28.710938 98.765625 C 28.785156 97.609375 28.890625 96.457031 29.027344 95.308594 C 29.164062 94.15625 29.328125 93.011719 29.523438 91.871094 C 29.71875 90.730469 29.945312 89.59375 30.203125 88.464844 C 30.460938 87.335938 30.746094 86.210938 31.058594 85.097656 C 31.375 83.984375 31.722656 82.878906 32.09375 81.78125 C 32.46875 80.6875 32.871094 79.601562 33.304688 78.527344 C 33.734375 77.453125 34.195312 76.390625 34.683594 75.339844 C 35.167969 74.289062 35.683594 73.25 36.226562 72.226562 C 36.769531 71.203125 37.339844 70.195312 37.933594 69.203125 C 38.53125 68.210938 39.152344 67.234375 39.800781 66.273438 C 40.449219 65.3125 41.121094 64.371094 41.816406 63.445312 C 42.515625 62.523438 43.238281 61.617188 43.980469 60.730469 C 44.726562 59.84375 45.496094 58.976562 46.285156 58.132812 C 47.078125 57.285156 47.890625 56.460938 48.726562 55.660156 C 49.5625 54.855469 50.417969 54.078125 51.292969 53.320312 C 52.167969 52.5625 53.0625 51.828125 53.980469 51.117188 C 54.894531 50.40625 55.828125 49.722656 56.777344 49.0625 C 57.730469 48.402344 58.695312 47.765625 59.683594 47.15625 C 60.667969 46.546875 61.667969 45.964844 62.683594 45.40625 L 82.246094 16.9375 C 80.828125 17.132812 79.414062 17.367188 78.007812 17.636719 C 76.601562 17.90625 75.199219 18.207031 73.808594 18.546875 C 72.414062 18.882812 71.03125 19.253906 69.660156 19.660156 C 68.285156 20.066406 66.921875 20.507812 65.570312 20.980469 C 64.21875 21.453125 62.878906 21.957031 61.550781 22.5 C 60.222656 23.039062 58.910156 23.609375 57.613281 24.214844 C 56.3125 24.820312 55.03125 25.453125 53.761719 26.121094 C 52.496094 26.789062 51.246094 27.488281 50.011719 28.21875 C 48.777344 28.949219 47.5625 29.707031 46.367188 30.496094 C 45.171875 31.285156 44 32.105469 42.84375 32.953125 C 41.6875 33.800781 40.554688 34.675781 39.445312 35.578125 C 38.332031 36.484375 37.242188 37.414062 36.175781 38.371094 C 35.113281 39.328125 34.070312 40.3125 33.054688 41.320312 C 32.035156 42.332031 31.042969 43.363281 30.078125 44.421875 C 29.113281 45.480469 28.171875 46.5625 27.261719 47.664062 C 26.347656 48.769531 25.464844 49.894531 24.605469 51.042969 C 23.75 52.191406 22.921875 53.359375 22.121094 54.550781 C 21.324219 55.738281 20.554688 56.945312 19.816406 58.171875 C 19.074219 59.398438 18.367188 60.644531 17.6875 61.90625 C 17.011719 63.167969 16.363281 64.445312 15.75 65.742188 C 15.132812 67.035156 14.550781 68.34375 14 69.667969 C 13.453125 70.988281 12.933594 72.324219 12.449219 73.671875 C 11.964844 75.019531 11.515625 76.378906 11.097656 77.75 C 10.683594 79.121094 10.300781 80.5 9.949219 81.890625 C 9.601562 83.28125 9.289062 84.679688 9.007812 86.082031 C 8.726562 87.488281 8.484375 88.898438 8.273438 90.316406 C 8.0625 91.734375 7.886719 93.15625 7.75 94.582031 C 7.609375 96.007812 7.503906 97.433594 7.433594 98.867188 C 7.367188 100.296875 7.332031 101.730469 7.335938 103.160156 C 7.335938 104.59375 7.371094 106.027344 7.445312 107.457031 C 7.519531 108.886719 7.625 110.316406 7.769531 111.742188 C 7.910156 113.167969 8.089844 114.585938 8.300781 116.003906 C 15.53125 125.78125 27.894531 135.621094 40.929688 141.320312 Z M 40.929688 141.320312 " fill-opacity="1" fill-rule="nonzero"/><path fill="#004aad" d="M 140.78125 166.886719 C 145.195312 160.632812 140.027344 154.503906 131.25 162.296875 C 135.527344 157.199219 132.148438 150.84375 125.683594 154.132812 C 121.316406 156.359375 119.652344 159.601562 113.066406 163.632812 C 97.957031 172.871094 80.007812 168.1875 75.296875 163.503906 C 86.75 162.34375 93.78125 159.078125 100.28125 153.355469 C 105.511719 148.742188 104.460938 137.324219 84.664062 145.800781 C 53.6875 159.070312 21.15625 141.371094 10.003906 124.570312 C 10.449219 126.308594 10.949219 128.03125 11.503906 129.738281 C 12.054688 131.449219 12.660156 133.136719 13.316406 134.808594 C 13.976562 136.480469 14.683594 138.128906 15.441406 139.753906 C 16.203125 141.382812 17.011719 142.984375 17.871094 144.558594 C 18.730469 146.136719 19.636719 147.6875 20.589844 149.207031 C 21.546875 150.726562 22.546875 152.214844 23.59375 153.675781 C 24.640625 155.132812 25.730469 156.558594 26.867188 157.949219 C 28 159.339844 29.179688 160.695312 30.398438 162.011719 C 31.617188 163.332031 32.875 164.609375 34.175781 165.847656 C 35.472656 167.089844 36.808594 168.289062 38.179688 169.445312 C 39.554688 170.601562 40.960938 171.714844 42.402344 172.785156 C 43.84375 173.855469 45.316406 174.878906 46.824219 175.859375 C 48.328125 176.839844 49.863281 177.769531 51.425781 178.652344 C 52.988281 179.535156 54.578125 180.371094 56.191406 181.15625 C 57.804688 181.941406 59.445312 182.675781 61.105469 183.359375 C 62.765625 184.042969 64.445312 184.675781 66.144531 185.253906 C 67.84375 185.835938 69.558594 186.363281 71.289062 186.835938 C 73.019531 187.308594 74.765625 187.726562 76.523438 188.09375 C 78.28125 188.457031 80.050781 188.769531 81.828125 189.023438 C 83.605469 189.28125 85.386719 189.480469 87.175781 189.625 C 88.964844 189.773438 90.757812 189.863281 92.554688 189.894531 C 94.347656 189.929688 96.144531 189.910156 97.9375 189.832031 C 99.730469 189.753906 101.519531 189.621094 103.304688 189.433594 C 105.089844 189.246094 106.871094 189.003906 108.640625 188.707031 C 110.410156 188.40625 112.171875 188.054688 113.917969 187.648438 C 115.667969 187.242188 117.402344 186.78125 119.121094 186.265625 C 120.84375 185.75 122.542969 185.183594 124.230469 184.566406 C 125.914062 183.945312 127.578125 183.273438 129.222656 182.550781 C 130.867188 181.828125 132.484375 181.054688 134.082031 180.230469 C 135.675781 179.40625 137.246094 178.535156 138.785156 177.613281 C 140.328125 176.695312 141.839844 175.726562 143.320312 174.710938 C 144.800781 173.699219 146.25 172.640625 147.667969 171.535156 C 151.699219 168.113281 146.976562 160.722656 140.78125 166.886719 Z M 140.78125 166.886719 " fill-opacity="1" fill-rule="nonzero"/><g clip-path="url(#3028c1c1ee)"><path fill="#000000" d="M 50.6875 166.058594 C 49.863281 166.058594 49.191406 165.386719 49.191406 164.558594 C 49.191406 163.734375 49.863281 163.0625 50.6875 163.0625 C 51.515625 163.0625 52.1875 163.734375 52.1875 164.558594 C 52.1875 165.386719 51.515625 166.058594 50.6875 166.058594 Z M 50.6875 163.085938 C 49.875 163.085938 49.210938 163.746094 49.210938 164.558594 C 49.210938 165.375 49.875 166.035156 50.6875 166.035156 C 51.503906 166.035156 52.164062 165.375 52.164062 164.558594 C 52.164062 163.746094 51.503906 163.085938 50.6875 163.085938 Z M 50.6875 163.085938 " fill-opacity="1" fill-rule="nonzero"/></g></svg>